<svg width="125" height="15" viewBox="0 0 125 15" fill="none" xmlns="http://www.w3.org/2000/svg">
<mask id="mask0_57_1939" style="mask-type:luminance" maskUnits="userSpaceOnUse" x="0" y="0" width="125" height="15">
<path d="M124.446 0.126831H0.0549316V14.5276H124.446V0.126831Z" fill="white"/>
</mask>
<g mask="url(#mask0_57_1939)">
<path d="M0.0568848 14.3023V0.127075H1.54265V6.48062C2.34988 5.28961 3.74347 4.69186 5.21653 4.69186C8.10861 4.69186 10.1013 6.95253 10.1013 9.61773C10.1013 12.2529 8.13558 14.5031 5.21653 14.5031C3.79115 14.5031 2.49767 13.9577 1.65865 12.8506C1.61733 12.7967 1.5792 12.7428 1.54106 12.6874V14.3023H0.0568848ZM4.96228 13.1608C7.1504 13.1608 8.55192 11.6432 8.55192 9.59673C8.55192 7.6147 7.19807 6.0132 4.98453 6.0132C2.80435 6.0132 1.46001 7.58624 1.46001 9.59673C1.45842 11.5623 2.75032 13.1608 4.96228 13.1608Z" fill="#D4D4D8"/>
<path d="M19.273 14.5015C16.7273 14.5015 15.0684 12.7023 15.0684 10.3577V4.89258H16.5764V10.2978C16.5764 11.8663 17.4965 13.1607 19.273 13.1607C21.0782 13.1607 21.9919 11.8993 21.9919 10.2978V4.89258H23.4777V10.3593C23.4777 12.7368 21.8568 14.5015 19.273 14.5015Z" fill="#D4D4D8"/>
<path d="M30.6523 14.3028V6.15453H28.1257V4.89311H30.6523V0.929077H32.1603V4.89311H36.5127V0.929077H38.0207V4.89311H40.5266V6.15453H38.0207V14.3028H36.5127V6.15453H32.1603V14.3028H30.6523Z" fill="#D4D4D8"/>
<path d="M49.5698 14.5015C46.638 14.5015 44.3879 12.3023 44.3879 9.55618C44.3879 6.82061 46.6746 4.69177 49.5698 4.69177C52.4889 4.69177 54.7517 6.79964 54.7517 9.55618C54.7517 12.3142 52.5127 14.5015 49.5698 14.5015ZM49.5698 13.1412C51.7468 13.1412 53.2231 11.5667 53.2231 9.55769C53.2231 7.56518 51.7102 6.03409 49.5698 6.03409C47.423 6.03409 45.9388 7.56518 45.9388 9.55769C45.9388 11.5712 47.3817 13.1412 49.5698 13.1412Z" fill="#D4D4D8"/>
<path d="M59.9509 14.3022V4.89253H61.4367V6.27529C62.2169 5.21163 63.4357 4.69177 64.7928 4.69177C67.081 4.69177 68.7209 6.39364 68.7209 8.536V14.3022H67.2129V8.77565C67.2129 7.16068 66.1435 5.99215 64.3892 5.99215C62.6984 5.99215 61.4367 7.12922 61.4367 8.75466V14.3007H59.9509V14.3022Z" fill="#D4D4D8"/>
<path d="M80.3986 14.3025H78.9131V0.127319H80.3986V6.48086C80.4403 6.42093 80.4812 6.36251 80.5262 6.30408C80.9218 5.79023 81.4282 5.39323 82.0453 5.11308C82.6617 4.83293 83.3374 4.6921 84.0725 4.6921C84.993 4.6921 85.8204 4.90933 86.5579 5.34228C87.2938 5.77674 87.8788 6.36401 88.3106 7.10409C88.7432 7.84569 88.959 8.68313 88.959 9.61645C88.959 10.5378 88.7464 11.3647 88.3218 12.0988C87.8973 12.8329 87.3131 13.4172 86.5691 13.8501C85.8252 14.2846 84.9946 14.5003 84.0741 14.5003C83.3101 14.5003 82.6231 14.3535 82.0148 14.0599C81.4065 13.7662 80.9074 13.3617 80.5181 12.8479C80.4764 12.794 80.4387 12.74 80.4018 12.6846V14.3025H80.3986ZM83.8165 13.161C84.5259 13.161 85.1487 13.0112 85.6856 12.71C86.2241 12.4089 86.6454 11.9895 86.9487 11.4486C87.2537 10.9078 87.4054 10.2906 87.4054 9.59698C87.4054 8.88982 87.2521 8.2696 86.9487 7.7348C86.6438 7.20146 86.2224 6.78048 85.6856 6.47337C85.1471 6.16626 84.5323 6.01344 83.8374 6.01344C83.1432 6.01344 82.5317 6.16626 82.0004 6.47337C81.4699 6.78048 81.055 7.20146 80.7581 7.7348C80.4611 8.26816 80.3111 8.88982 80.3111 9.59698C80.3111 10.2906 80.4611 10.9078 80.7581 11.4486C81.055 11.9895 81.4651 12.4089 81.9891 12.71C82.5156 13.0112 83.1239 13.161 83.8165 13.161Z" fill="#D4D4D8"/>
<path d="M94.1777 14.3025V0.127319H95.6632V14.3025H94.1777Z" fill="#D4D4D8"/>
<path d="M105.472 14.5015C102.927 14.5015 101.268 12.7023 101.268 10.3577V4.89258H102.776V10.2978C102.776 11.8663 103.696 13.1607 105.472 13.1607C107.277 13.1607 108.191 11.8993 108.191 10.2978V4.89258H109.677V10.3593C109.677 12.7368 108.057 14.5015 105.472 14.5015Z" fill="#D4D4D8"/>
<path fill-rule="evenodd" clip-rule="evenodd" d="M122.903 11.9402C122.218 12.7162 121.253 13.1627 119.93 13.1807C117.915 13.1762 116.443 12.0256 116.167 10.117H124.347C124.915 7.20465 122.927 4.69379 119.782 4.6908C116.97 4.6908 114.643 6.69828 114.643 9.57618C114.643 12.183 116.707 14.496 119.909 14.502C121.595 14.502 122.925 13.8488 123.859 12.8601L122.903 11.9402ZM116.173 8.917L123 8.91852C122.862 7.12225 121.66 5.99267 119.739 5.99417C117.697 5.99566 116.466 7.15971 116.173 8.917Z" fill="#D4D4D8"/>
</g>
</svg>
