<svg width="311" height="36" viewBox="0 0 311 36" fill="none" xmlns="http://www.w3.org/2000/svg">
<mask id="mask0_57_2052" style="mask-type:luminance" maskUnits="userSpaceOnUse" x="0" y="0" width="311" height="36">
<path d="M310.96 0H0V36H310.96V0Z" fill="white"/>
</mask>
<g mask="url(#mask0_57_2052)">
<path d="M0.00585938 35.4361V0H3.72007V15.883C5.73803 12.9056 9.22183 11.4113 12.9043 11.4113C20.1341 11.4113 25.1154 17.0627 25.1154 23.7253C25.1154 30.3129 20.2015 35.938 12.9043 35.938C9.34101 35.938 6.10747 34.5748 4.01004 31.8071C3.90676 31.6724 3.81143 31.5375 3.71609 31.399V35.4361H0.00585938ZM12.2687 32.5825C17.7387 32.5825 21.2423 28.7886 21.2423 23.6728C21.2423 18.718 17.8578 14.7145 12.3243 14.7145C6.87414 14.7145 3.51349 18.6469 3.51349 23.6728C3.50952 28.5865 6.73908 32.5825 12.2687 32.5825Z" fill="white"/>
<path d="M48.0423 35.9342C41.6784 35.9342 37.5312 31.4362 37.5312 25.5753V11.9131H41.3011V25.4254C41.3011 29.3465 43.6012 32.5824 48.0423 32.5824C52.555 32.5824 54.8391 29.429 54.8391 25.4254V11.9131H58.5533V25.579C58.5533 31.5225 54.5014 35.9342 48.0423 35.9342Z" fill="white"/>
<path d="M76.4897 35.4356V15.066H70.1736V11.9126H76.4897V2.00305H80.2595V11.9126H91.1399V2.00305H94.9097V11.9126H101.174V15.066H94.9097V35.4356H91.1399V15.066H80.2595V35.4356H76.4897Z" fill="white"/>
<path d="M123.782 35.9347C116.453 35.9347 110.828 30.4369 110.828 23.5721C110.828 16.7335 116.544 11.4117 123.782 11.4117C131.079 11.4117 136.736 16.6811 136.736 23.5721C136.736 30.4668 131.139 35.9347 123.782 35.9347ZM123.782 32.5342C129.224 32.5342 132.915 28.5981 132.915 23.5759C132.915 18.5949 129.133 14.7674 123.782 14.7674C118.415 14.7674 114.705 18.5949 114.705 23.5759C114.705 28.6092 118.312 32.5342 123.782 32.5342Z" fill="white"/>
<path d="M149.732 35.4366V11.9136H153.447V15.3703C155.397 12.7113 158.444 11.4117 161.836 11.4117C167.557 11.4117 171.656 15.6662 171.656 21.0218V35.4366H167.886V21.6209C167.886 17.5837 165.213 14.6625 160.827 14.6625C156.601 14.6625 153.447 17.505 153.447 21.5684V35.4328H149.732V35.4366Z" fill="white"/>
<path d="M200.85 35.4361H197.137V0H200.85V15.883C200.954 15.7332 201.057 15.5871 201.169 15.4411C202.158 14.1565 203.424 13.164 204.967 12.4637C206.508 11.7634 208.197 11.4113 210.035 11.4113C212.336 11.4113 214.404 11.9544 216.248 13.0367C218.087 14.1228 219.55 15.5909 220.629 17.441C221.711 19.2949 222.25 21.3884 222.25 23.7215C222.25 26.0248 221.719 28.0919 220.657 29.9272C219.596 31.7622 218.136 33.2229 216.276 34.3052C214.416 35.3912 212.34 35.9305 210.039 35.9305C208.129 35.9305 206.411 35.5634 204.891 34.8294C203.37 34.0954 202.122 33.0842 201.149 31.7997C201.045 31.6648 200.95 31.5299 200.858 31.3914V35.4361H200.85ZM209.395 32.5825C211.168 32.5825 212.725 32.2079 214.067 31.4551C215.413 30.7023 216.466 29.6538 217.225 28.3017C217.987 26.9498 218.366 25.4067 218.366 23.6728C218.366 21.9051 217.983 20.3546 217.225 19.0177C216.462 17.6844 215.409 16.632 214.067 15.8643C212.721 15.0965 211.184 14.7145 209.447 14.7145C207.711 14.7145 206.183 15.0965 204.855 15.8643C203.528 16.632 202.491 17.6844 201.749 19.0177C201.007 20.351 200.631 21.9051 200.631 23.6728C200.631 25.4067 201.007 26.9498 201.749 28.3017C202.491 29.6538 203.516 30.7023 204.826 31.4551C206.143 32.2079 207.663 32.5825 209.395 32.5825Z" fill="white"/>
<path d="M235.295 35.4361V0H239.008V35.4361H235.295Z" fill="white"/>
<path d="M263.532 35.9342C257.168 35.9342 253.021 31.4362 253.021 25.5753V11.9131H256.791V25.4254C256.791 29.3465 259.09 32.5824 263.532 32.5824C268.044 32.5824 270.329 29.429 270.329 25.4254V11.9131H274.042V25.579C274.042 31.5225 269.992 35.9342 263.532 35.9342Z" fill="white"/>
<path fill-rule="evenodd" clip-rule="evenodd" d="M307.103 29.5302C305.392 31.4702 302.98 32.5862 299.672 32.6313C294.634 32.6199 290.955 29.7437 290.265 24.9724H310.714C312.132 17.692 307.163 11.4152 299.301 11.4077C292.271 11.4077 286.455 16.4262 286.455 23.6205C286.455 30.1371 291.615 35.9194 299.62 35.9344C303.835 35.9344 307.159 34.3015 309.494 31.8298L307.103 29.5302ZM290.281 21.9727L307.346 21.9764C307 17.486 303.997 14.6622 299.194 14.666C294.091 14.6697 291.011 17.5796 290.281 21.9727Z" fill="white"/>
</g>
</svg>
