<svg width="168" height="34" viewBox="0 0 168 34" fill="none" xmlns="http://www.w3.org/2000/svg">
<path d="M34.8934 15.5221C34.8934 18.9369 34.4853 21.723 33.6777 23.8782C32.4357 27.1519 30.3949 29.6771 27.5453 31.4409C24.8037 33.1322 21.5459 33.9827 17.7883 33.9827C11.6722 33.9827 6.9827 32.0149 3.70736 28.0889C1.23328 25.107 0 21.5499 0 17.4186C0 12.8391 1.45055 8.99134 4.34032 5.87539C7.6232 2.32656 12.206 0.55571 18.096 0.55571C22.0282 0.55571 25.3613 1.50816 28.0941 3.4048C30.0432 4.75815 31.7098 6.74839 33.0938 9.38511L24.8954 12.5485C24.1946 11.1085 23.3795 10.0304 22.454 9.30678C21.1202 8.29149 19.5289 7.78028 17.6878 7.78028C13.9302 7.78028 11.3054 9.60573 9.83104 13.2577C9.27217 14.6028 8.99839 15.9882 8.99839 17.4198C8.99839 20.4017 9.99808 22.8807 12.0062 24.8722C13.4894 26.3512 15.4725 27.0901 17.9465 27.0901C20.1456 27.0901 21.8951 26.4852 23.1786 25.2802C24.0288 24.4855 24.5864 23.3125 24.8451 21.7551H17.6966V15.5232H34.8934V15.5221ZM73.2694 32.9911H54.2227V1.49985H62.8707V26.1923H73.2694V32.9911ZM123.009 1.49985L108.805 32.9911H102.073L88.0662 1.49985H97.4891L105.513 20.6449L113.612 1.49985H123.009ZM168 32.9911H157.252L149.004 20.9521V32.9911H140.356V1.49985H153.82C157.762 1.49985 160.67 2.61715 162.56 4.85185C164.084 6.65346 164.852 8.77072 164.852 11.2022C164.852 13.9956 163.977 16.223 162.22 17.8825C161.095 18.944 159.545 19.6841 157.579 20.1016L168 32.9911ZM155.854 11.6577C155.854 10.5333 155.42 9.5879 154.554 8.81696C153.745 8.09349 152.429 7.7317 150.622 7.7317H149.006V15.6158H150.622C152.447 15.6158 153.762 15.254 154.554 14.5304C155.42 13.7429 155.854 12.7833 155.854 11.6577Z" fill="white"/>
<path fill-rule="evenodd" clip-rule="evenodd" d="M57.6928 20.0536C57.5534 20.0536 57.4266 20.1011 57.3349 20.1995C57.2319 20.3075 57.1818 20.4213 57.1818 20.5648C57.1818 20.859 57.3625 21.0512 57.679 21.088C58.1236 21.1353 58.3384 21.1401 58.852 21.1401C58.8546 21.1401 59.5968 21.1319 59.5968 21.1319C59.5968 21.1319 59.9597 21.1117 60.1418 21.1117C60.4093 21.3559 60.6266 21.6738 60.6103 22.0048C60.599 22.2147 60.4231 22.5195 59.7839 22.529L58.7943 22.5065L58.1362 22.4567L57.7004 22.4117C57.5484 22.4117 57.4216 22.4603 57.3148 22.5622C57.2143 22.6702 57.1641 22.803 57.1641 22.9442C57.1641 23.2217 57.3362 23.4091 57.6363 23.4566C58.1387 23.5348 58.5167 23.5408 58.8382 23.5408C59.3518 23.5408 59.7952 23.5716 60.4884 23.472C60.8577 23.4211 61.1127 23.2526 61.3714 22.9881C61.5345 22.7603 61.6765 22.5481 61.6765 22.0535C61.6765 21.6833 61.4756 21.2956 61.247 21.0441C61.5145 21.0037 61.6715 20.9218 61.6791 20.6087C61.6815 20.4676 61.6288 20.3348 61.5358 20.2351C61.4203 20.1259 61.2947 20.0761 61.1414 20.0761L60.9556 20.0809L60.7886 20.0916L60.6317 20.1023L59.8052 20.1248L58.9876 20.1106L57.738 20.0536C57.7204 20.0536 57.7066 20.0536 57.6928 20.0536Z" fill="#211E1F"/>
<path fill-rule="evenodd" clip-rule="evenodd" d="M57.2432 5.03488C57.1502 5.12268 57.1001 5.26497 57.0925 5.38007C57.0863 5.47489 57.0787 5.53662 57.1001 5.63746C57.1566 5.89484 57.2696 6.23402 57.64 6.57441C57.2369 6.66222 57.1628 6.89944 57.1628 7.06078C57.1628 7.23983 57.2143 7.56363 57.6915 7.56363L61.1402 7.56719C61.4881 7.56719 61.6966 7.38457 61.6966 7.07849C61.6966 6.74055 61.4931 6.54712 61.1402 6.54712C61.1402 6.54712 59.3744 6.55425 59.1446 6.55547C58.7691 6.56372 58.3973 6.21741 58.2956 5.88771C58.2492 5.73941 58.2354 5.66119 58.2165 5.52236C58.2165 5.51166 58.2102 5.40971 58.2089 5.40024C58.1951 5.25784 58.1763 5.14875 58.0658 5.03488C57.9578 4.92457 57.7996 4.8712 57.635 4.87588C57.4781 4.87944 57.3537 4.91621 57.2432 5.03488Z" fill="#211E1F"/>
<path fill-rule="evenodd" clip-rule="evenodd" d="M55.1172 19.1789C55.1172 19.5063 55.3207 19.696 55.6622 19.6866L56.8077 19.6689L56.9872 19.6664C56.9848 19.6664 58.375 19.6462 58.375 19.6462L59.7426 19.6523L61.1342 19.6582C61.487 19.6487 61.6892 19.4518 61.6892 19.1196C61.6892 18.8184 61.5021 18.6369 61.1606 18.6108C61.1542 18.6108 60.2601 18.6001 60.2601 18.6001C60.2625 18.6001 58.3788 18.6001 58.3788 18.6001C58.3737 18.6001 57.1619 18.6191 57.1619 18.6191L55.6622 18.6322C55.3207 18.6404 55.1172 18.8457 55.1172 19.1789Z" fill="#211E1F"/>
<path fill-rule="evenodd" clip-rule="evenodd" d="M55.1172 17.6236C55.1172 17.9499 55.3207 18.1409 55.6622 18.1313L56.8415 18.1124L58.3737 18.0993L59.7414 18.0957L61.1329 18.1017C61.4858 18.0922 61.6881 17.8953 61.6881 17.5633C61.6881 17.2666 61.4959 17.0817 61.1606 17.0544C61.1542 17.0544 60.2601 17.0437 60.2601 17.0437C60.2625 17.0437 58.3788 17.0425 58.3788 17.0425C58.3737 17.0425 57.2296 17.0603 57.2296 17.0603L56.9935 17.0626C56.996 17.0626 55.6635 17.0828 55.6635 17.0828C55.3207 17.0947 55.1172 17.2963 55.1172 17.6236Z" fill="#211E1F"/>
<path fill-rule="evenodd" clip-rule="evenodd" d="M58.0589 24.0215C57.9521 24.1352 57.8969 24.2753 57.8969 24.4378C57.8969 25.8493 57.7098 27.1077 58.0538 27.6782C58.1983 27.9036 58.3954 27.9356 58.5361 27.925C58.6767 27.9131 58.8413 27.8597 58.9619 27.7565C59.0987 27.613 59.1766 27.473 59.1766 27.3153L59.1163 27.0793C58.9191 26.6522 59.0422 25.6997 58.9882 25.1198C59.3047 25.0948 59.6852 24.9988 60.2554 25.6558C60.5166 25.9571 60.6071 26.4245 60.5857 26.8526C60.5267 28.0151 59.6035 28.3768 59.1741 28.4717C58.3477 28.6556 57.7637 28.6259 56.9725 28.1064C56.5568 27.8336 56.1712 27.2476 56.2277 26.5122C56.2842 25.7852 56.7213 25.5835 56.9423 25.1803C57.0253 25.0439 57.0667 24.9372 57.0667 24.8494C57.0667 24.6987 56.9587 24.5682 56.8394 24.4615C56.744 24.363 56.6058 24.3132 56.4501 24.3262C56.1461 24.3512 55.7329 24.6632 55.5207 25.0641C55.3035 25.4744 55.0962 25.905 55.0824 26.5419C55.0724 26.9654 55.2633 27.7849 55.728 28.3887C56.126 28.9046 56.5354 29.2083 57.2689 29.4633C57.932 29.6923 58.6126 29.7041 59.2871 29.5866C60.1851 29.4313 60.7791 28.9319 61.1383 28.5073C61.4899 28.0922 61.7059 27.4529 61.7059 26.7589C61.7059 26.0069 61.4573 25.3143 60.9624 24.8007C60.3245 24.1377 59.7003 24.0001 58.8902 24.0226C58.7848 23.8839 58.6428 23.8044 58.4495 23.8198C58.305 23.8341 58.1706 23.9028 58.0589 24.0215Z" fill="#211E1F"/>
<path fill-rule="evenodd" clip-rule="evenodd" d="M58.1931 9.8407C58.1717 9.71268 58.1642 9.56315 58.1868 9.42209C58.2082 9.27969 58.3225 9.04247 58.4305 8.92146C58.5448 9.14453 58.6741 9.48727 58.8035 9.79447C58.9328 10.1005 59.0207 10.3378 59.1815 10.6687C58.8323 10.5998 58.659 10.4848 58.5021 10.3496C58.3288 10.2037 58.2157 9.97597 58.1931 9.8407ZM60.1673 7.99877C60.0744 8.08534 60.0229 8.20156 60.0229 8.33794C60.0229 8.48981 60.1484 8.6214 60.3357 8.74007C60.4022 8.78508 60.5553 8.92147 60.6434 9.23111C60.8656 10.027 60.4926 10.3733 60.4926 10.3733C60.4247 10.5014 60.2854 10.5773 60.1208 10.6437C60.0129 10.3685 59.8194 9.86566 59.6047 9.3461C59.39 8.82664 59.2003 8.36647 59.1099 8.22284C58.9453 7.95843 58.7155 7.86584 58.4719 7.87776C58.0323 7.89905 57.6254 8.24301 57.4307 8.62029C57.2725 8.89896 57.1821 9.26543 57.1922 9.70321C57.2047 10.2594 57.5828 10.8833 57.9922 11.2012C58.4016 11.518 59.0559 11.7041 59.7453 11.7041C60.3771 11.7041 60.9535 11.4598 61.2374 11.0743C61.5475 10.6521 61.6832 10.2452 61.7046 9.77786C61.7259 9.33195 61.6065 8.99266 61.4245 8.60603C61.1909 8.09838 60.8732 7.83977 60.5253 7.83977C60.3858 7.84099 60.2654 7.89437 60.1673 7.99877Z" fill="#211E1F"/>
<path fill-rule="evenodd" clip-rule="evenodd" d="M57.3186 11.6703C57.2156 11.7794 57.1641 11.9027 57.1641 12.0451C57.1641 12.2456 57.2859 12.4128 57.5069 12.5171C57.5195 12.5231 58.3585 12.8374 58.3585 12.8374C58.916 13.0461 59.431 13.3214 59.8027 13.4767C59.2551 13.6736 57.5145 14.2975 57.5145 14.2975C57.2947 14.3829 57.1754 14.5501 57.1754 14.7672C57.1754 14.9084 57.2268 15.034 57.3286 15.142C57.4341 15.2535 57.5622 15.3211 57.7217 15.308C57.8813 15.295 58.1249 15.1942 58.1249 15.1942C58.1211 15.1954 59.696 14.5976 59.696 14.5976L61.2369 14.0211C61.5999 13.8788 61.6765 13.6451 61.6765 13.4743C61.6765 13.1932 61.5019 13.0177 61.2168 12.9869C61.1992 12.9797 59.3745 12.1317 59.3745 12.1317C58.3559 11.681 57.7581 11.5054 57.7091 11.5054C57.5572 11.5041 57.4203 11.5611 57.3186 11.6703Z" fill="#211E1F"/>
<path fill-rule="evenodd" clip-rule="evenodd" d="M55.6772 15.6311C55.5604 15.745 55.5039 15.879 55.5039 16.0475C55.5039 16.2183 55.5642 16.3593 55.6835 16.4685C55.7915 16.5789 55.9397 16.6381 56.1068 16.6333C56.2775 16.6287 56.4345 16.5598 56.5462 16.4377C56.6581 16.3179 56.7171 16.1708 56.7171 16.0143C56.7171 15.8601 56.6606 15.7272 56.5462 15.6074C56.4332 15.4924 56.2775 15.4319 56.1068 15.4367C55.9397 15.4413 55.7915 15.5077 55.6772 15.6311Z" fill="white"/>
<path fill-rule="evenodd" clip-rule="evenodd" d="M57.7349 15.5495C57.5238 15.5554 57.3995 15.6444 57.3316 15.7191C57.2337 15.814 57.1797 15.9409 57.1797 16.088C57.1797 16.2398 57.2337 16.3668 57.3392 16.4652C57.4397 16.5553 57.5754 16.6005 57.7349 16.5969C57.7349 16.5969 58.1656 16.6135 58.8024 16.6051C59.5396 16.5944 61.1395 16.5625 61.1395 16.5625C61.294 16.5577 61.4296 16.5032 61.5339 16.4023C61.6369 16.2885 61.6858 16.1639 61.6858 16.0239C61.6858 15.8781 61.6381 15.7535 61.5426 15.655C61.4196 15.5554 61.2852 15.5127 61.1395 15.5163C61.1395 15.5163 59.5056 15.5625 58.7496 15.5697C58.0853 15.5756 57.7349 15.5495 57.7349 15.5495Z" fill="#211E1F"/>
</svg>
