<svg width="89" height="19" viewBox="0 0 89 19" fill="none" xmlns="http://www.w3.org/2000/svg">
<path d="M18.8887 8.41226C18.8887 10.2007 18.6749 11.6599 18.252 12.7886C17.6015 14.5032 16.5326 15.8257 15.0402 16.7495C13.6043 17.6353 11.8981 18.0807 9.93012 18.0807C6.72689 18.0807 4.27085 17.0501 2.55544 14.994C1.25968 13.4322 0.61377 11.5692 0.61377 9.40554C0.61377 7.0071 1.37347 4.99189 2.88695 3.35995C4.60631 1.50131 7.00645 0.573853 10.0913 0.573853C12.1507 0.573853 13.8964 1.07268 15.3276 2.06602C16.3484 2.77482 17.2213 3.81718 17.9461 5.19812L13.6524 6.85491C13.2853 6.10071 12.8584 5.53606 12.3737 5.15709C11.6752 4.62535 10.8418 4.35761 9.87748 4.35761C7.9095 4.35761 6.53483 5.31366 5.76263 7.22635C5.46993 7.93082 5.32654 8.65637 5.32654 9.40619C5.32654 10.9679 5.85011 12.2662 6.90184 13.3092C7.67866 14.0838 8.71727 14.4709 10.013 14.4709C11.1647 14.4709 12.081 14.154 12.7532 13.5229C13.1985 13.1067 13.4905 12.4924 13.626 11.6767H9.88211V8.41285H18.8887V8.41226ZM38.9875 17.5614H29.0121V1.06833H33.5413V14.0006H38.9875V17.5614ZM65.038 1.06833L57.5985 17.5614H54.073L46.7371 1.06833H51.6722L55.8746 11.0952L60.1164 1.06833H65.038ZM88.6012 17.5614H82.9723L78.6526 11.2561V17.5614H74.1228V1.06833H81.1748C83.2392 1.06833 84.7623 1.6535 85.7521 2.82389C86.5505 3.76746 86.9527 4.87634 86.9527 6.14979C86.9527 7.61278 86.4942 8.77938 85.5742 9.64848C84.9847 10.2044 84.1728 10.592 83.1434 10.8107L88.6012 17.5614ZM82.2401 6.38835C82.2401 5.79948 82.0127 5.30433 81.5591 4.90056C81.1353 4.52165 80.4463 4.33217 79.4997 4.33217H78.6532V8.46134H79.4997C80.4556 8.46134 81.1445 8.27186 81.5591 7.89289C82.0127 7.48043 82.2401 6.97787 82.2401 6.38835Z" fill="#D4D4D8"/>
<path fill-rule="evenodd" clip-rule="evenodd" d="M30.8302 10.7859C30.7571 10.7859 30.6907 10.8107 30.6427 10.8623C30.5888 10.9188 30.5625 10.9785 30.5625 11.0536C30.5625 11.2077 30.6572 11.3084 30.8229 11.3276C31.0558 11.3524 31.1683 11.3549 31.4372 11.3549C31.4386 11.3549 31.8273 11.3506 31.8273 11.3506C31.8273 11.3506 32.0174 11.34 32.1128 11.34C32.2529 11.468 32.3667 11.6344 32.3581 11.8078C32.3522 11.9177 32.2601 12.0774 31.9253 12.0823L31.407 12.0705L31.0624 12.0445L30.8341 12.0209C30.7545 12.0209 30.6881 12.0463 30.6322 12.0997C30.5795 12.1563 30.5532 12.2258 30.5532 12.2998C30.5532 12.4451 30.6434 12.5433 30.8006 12.5681C31.0637 12.6091 31.2616 12.6123 31.43 12.6123C31.699 12.6123 31.9312 12.6284 32.2943 12.5762C32.4877 12.5495 32.6212 12.4613 32.7567 12.3228C32.8422 12.2035 32.9165 12.0923 32.9165 11.8333C32.9165 11.6394 32.8113 11.4363 32.6916 11.3046C32.8317 11.2835 32.9139 11.2406 32.9179 11.0766C32.9192 11.0027 32.8916 10.9331 32.8429 10.881C32.7824 10.8238 32.7166 10.7977 32.6363 10.7977L32.539 10.8002L32.4515 10.8058L32.3693 10.8114L31.9365 10.8232L31.5083 10.8157L30.8538 10.7859C30.8446 10.7859 30.8374 10.7859 30.8302 10.7859Z" fill="white"/>
<path fill-rule="evenodd" clip-rule="evenodd" d="M30.5933 2.92034C30.5446 2.96632 30.5184 3.04084 30.5144 3.10112C30.5112 3.15079 30.5072 3.18311 30.5184 3.23593C30.548 3.37073 30.6072 3.54837 30.8012 3.72664C30.5901 3.77263 30.5513 3.89687 30.5513 3.98137C30.5513 4.07515 30.5782 4.24473 30.8281 4.24473L32.6343 4.2466C32.8166 4.2466 32.9257 4.15095 32.9257 3.99065C32.9257 3.81365 32.8192 3.71235 32.6343 3.71235C32.6343 3.71235 31.7096 3.71608 31.5892 3.71672C31.3925 3.72104 31.1978 3.53967 31.1446 3.367C31.1202 3.28932 31.113 3.24836 31.1031 3.17565C31.1031 3.17004 31.0998 3.11665 31.0991 3.11169C31.0919 3.03711 31.082 2.97998 31.0242 2.92034C30.9676 2.86256 30.8847 2.83461 30.7985 2.83706C30.7164 2.83893 30.6512 2.85819 30.5933 2.92034Z" fill="white"/>
<path fill-rule="evenodd" clip-rule="evenodd" d="M29.4812 10.3276C29.4812 10.499 29.5878 10.5984 29.7667 10.5934L30.3666 10.5842L30.4606 10.5829C30.4593 10.5829 31.1874 10.5723 31.1874 10.5723L31.9037 10.5755L32.6325 10.5786C32.8173 10.5736 32.9232 10.4705 32.9232 10.2965C32.9232 10.1387 32.8252 10.0437 32.6463 10.03C32.643 10.03 32.1747 10.0244 32.1747 10.0244C32.176 10.0244 31.1894 10.0244 31.1894 10.0244C31.1868 10.0244 30.5521 10.0344 30.5521 10.0344L29.7667 10.0412C29.5878 10.0455 29.4812 10.153 29.4812 10.3276Z" fill="white"/>
<path fill-rule="evenodd" clip-rule="evenodd" d="M29.4812 9.51325C29.4812 9.68411 29.5878 9.78414 29.7667 9.77912L30.3843 9.7692L31.1868 9.76237L31.9031 9.7605L32.6318 9.7636C32.8167 9.75864 32.9226 9.65552 32.9226 9.48162C32.9226 9.32627 32.8219 9.2294 32.6463 9.21511C32.643 9.21511 32.1747 9.2095 32.1747 9.2095C32.176 9.2095 31.1894 9.20886 31.1894 9.20886C31.1868 9.20886 30.5875 9.2182 30.5875 9.2182L30.4639 9.21942C30.4652 9.21942 29.7673 9.22999 29.7673 9.22999C29.5878 9.23623 29.4812 9.3418 29.4812 9.51325Z" fill="white"/>
<path fill-rule="evenodd" clip-rule="evenodd" d="M31.0207 12.8638C30.9648 12.9234 30.9359 12.9968 30.9359 13.0818C30.9359 13.8211 30.8379 14.4802 31.0181 14.779C31.0938 14.897 31.197 14.9138 31.2707 14.9082C31.3443 14.902 31.4305 14.874 31.4937 14.82C31.5653 14.7448 31.6061 14.6715 31.6061 14.5889L31.5746 14.4653C31.4713 14.2416 31.5358 13.7428 31.5075 13.439C31.6732 13.426 31.8725 13.3757 32.1711 13.7198C32.3079 13.8776 32.3553 14.1224 32.3441 14.3466C32.3132 14.9554 31.8297 15.1448 31.6048 15.1946C31.172 15.2909 30.8661 15.2753 30.4518 15.0032C30.234 14.8604 30.0321 14.5535 30.0617 14.1683C30.0913 13.7875 30.3202 13.6819 30.436 13.4707C30.4794 13.3993 30.5011 13.3434 30.5011 13.2974C30.5011 13.2185 30.4446 13.1502 30.3821 13.0943C30.3321 13.0427 30.2597 13.0166 30.1782 13.0234C30.019 13.0365 29.8026 13.1999 29.6914 13.4099C29.5777 13.6248 29.4691 13.8503 29.4619 14.1838C29.4566 14.4056 29.5566 14.8349 29.8 15.1511C30.0085 15.4213 30.2229 15.5804 30.607 15.7139C30.9543 15.8338 31.3108 15.84 31.664 15.7785C32.1343 15.6971 32.4454 15.4356 32.6336 15.2132C32.8177 14.9958 32.9308 14.661 32.9308 14.2975C32.9308 13.9037 32.8006 13.5409 32.5414 13.2719C32.2073 12.9247 31.8804 12.8526 31.4562 12.8644C31.4009 12.7917 31.3266 12.7501 31.2253 12.7582C31.1496 12.7657 31.0793 12.8017 31.0207 12.8638Z" fill="white"/>
<path fill-rule="evenodd" clip-rule="evenodd" d="M31.0918 5.43651C31.0806 5.36946 31.0766 5.29115 31.0885 5.21727C31.0997 5.14269 31.1595 5.01845 31.2161 4.95507C31.2759 5.0719 31.3437 5.25141 31.4114 5.41229C31.4792 5.5726 31.5252 5.69684 31.6094 5.87016C31.4265 5.83409 31.3358 5.77387 31.2536 5.70302C31.1628 5.62664 31.1036 5.50736 31.0918 5.43651ZM32.1257 4.47182C32.077 4.51717 32.0501 4.57803 32.0501 4.64946C32.0501 4.729 32.1158 4.79792 32.2139 4.86007C32.2488 4.88364 32.329 4.95507 32.375 5.11724C32.4915 5.53408 32.2961 5.71545 32.2961 5.71545C32.2606 5.78256 32.1876 5.8223 32.1014 5.85708C32.0448 5.71294 31.9435 5.44958 31.8311 5.17747C31.7186 4.90541 31.6192 4.6644 31.5719 4.58918C31.4857 4.4507 31.3654 4.40221 31.2378 4.40845C31.0075 4.4196 30.7944 4.59974 30.6925 4.79734C30.6096 4.94328 30.5623 5.13522 30.5675 5.3645C30.5741 5.65581 30.7721 5.98255 30.9865 6.14904C31.2009 6.31495 31.5436 6.41246 31.9047 6.41246C32.2356 6.41246 32.5375 6.28449 32.6862 6.08257C32.8486 5.86146 32.9197 5.64834 32.9308 5.4036C32.942 5.17006 32.8795 4.99236 32.7842 4.78987C32.6618 4.52399 32.4954 4.38855 32.3132 4.38855C32.2402 4.38919 32.1771 4.41714 32.1257 4.47182Z" fill="white"/>
<path fill-rule="evenodd" clip-rule="evenodd" d="M30.6347 6.39436C30.5807 6.45149 30.5537 6.51609 30.5537 6.59067C30.5537 6.69565 30.6175 6.78325 30.7333 6.83787C30.7399 6.84102 31.1793 7.00564 31.1793 7.00564C31.4713 7.11494 31.741 7.25908 31.9357 7.34043C31.6489 7.44355 30.7372 7.77034 30.7372 7.77034C30.6221 7.81504 30.5596 7.90264 30.5596 8.01631C30.5596 8.09025 30.5866 8.15608 30.6399 8.21262C30.6951 8.27104 30.7622 8.3064 30.8458 8.29957C30.9293 8.29275 31.0569 8.23994 31.0569 8.23994C31.0549 8.24058 31.8798 7.9275 31.8798 7.9275L32.6868 7.62556C32.8769 7.55104 32.917 7.42867 32.917 7.33921C32.917 7.19197 32.8256 7.10006 32.6763 7.0839C32.6671 7.08016 31.7114 6.63601 31.7114 6.63601C31.1779 6.39996 30.8648 6.30799 30.8392 6.30799C30.7596 6.30735 30.6879 6.33717 30.6347 6.39436Z" fill="white"/>
<path fill-rule="evenodd" clip-rule="evenodd" d="M29.7751 8.46901C29.7139 8.52864 29.6843 8.59882 29.6843 8.68703C29.6843 8.77647 29.7159 8.85033 29.7783 8.90751C29.8349 8.96527 29.9125 8.99631 30 8.9938C30.0894 8.99135 30.1716 8.95529 30.2301 8.89135C30.2887 8.82863 30.3195 8.75162 30.3195 8.66965C30.3195 8.5889 30.29 8.51936 30.2301 8.45658C30.1709 8.39637 30.0894 8.3647 30 8.3672C29.9125 8.36965 29.8349 8.40443 29.7751 8.46901Z" fill="white"/>
<path fill-rule="evenodd" clip-rule="evenodd" d="M30.8518 8.42631C30.7413 8.4294 30.6761 8.47603 30.6406 8.51513C30.5893 8.56485 30.561 8.63132 30.561 8.70835C30.561 8.78783 30.5893 8.85435 30.6446 8.90588C30.6972 8.95309 30.7683 8.97673 30.8518 8.97486C30.8518 8.97486 31.0774 8.98355 31.4109 8.97918C31.797 8.97358 32.6349 8.95683 32.6349 8.95683C32.7159 8.95432 32.7869 8.92578 32.8415 8.87297C32.8954 8.81333 32.9211 8.74809 32.9211 8.67479C32.9211 8.5984 32.896 8.53316 32.8461 8.48157C32.7816 8.4294 32.7112 8.40705 32.6349 8.40892C32.6349 8.40892 31.7792 8.43314 31.3833 8.43687C31.0353 8.43997 30.8518 8.42631 30.8518 8.42631Z" fill="white"/>
</svg>
