<svg width="150" height="51" viewBox="0 0 150 51" fill="none" xmlns="http://www.w3.org/2000/svg">
<path d="M111.82 19.1551H109.746V18.1006H115.102V19.1551H113.024V24.8766H111.82V19.1551ZM131.678 24.0218C131.141 24.0218 130.529 23.7348 130.193 23.2762L129.332 24.0811C129.865 24.7113 130.776 25.0452 131.656 25.0452C132.985 25.0452 134.124 24.3369 134.124 22.8832C134.124 21.5541 133.013 21.1704 132.143 20.9021C131.378 20.6619 130.851 20.4809 130.851 19.8601C130.851 19.2019 131.49 18.9335 132.046 18.9335C132.526 18.9335 133.032 19.183 133.291 19.5168L134.077 18.6558C133.559 18.1691 132.785 17.9289 132.105 17.9289C130.879 17.9289 129.628 18.5404 129.628 19.9193C129.628 21.1829 130.517 21.5822 131.338 21.8411C132.189 22.1095 132.898 22.3121 132.898 23.0203C132.901 23.7442 132.239 24.0218 131.678 24.0218ZM125.432 24.8735H126.636V21.9347L129.179 18.0974H127.781L126.059 20.9489L124.356 18.0974H122.883L125.426 21.9347V24.8735H125.432ZM115.52 21.4667C115.52 19.2955 117.058 17.9289 119.146 17.9289C121.258 17.9289 122.799 19.2955 122.799 21.4667C122.799 23.5819 121.258 25.0452 119.146 25.0452C117.061 25.0482 115.52 23.5819 115.52 21.4667ZM116.831 21.4667C116.831 22.9113 117.776 23.9658 119.155 23.9658C120.543 23.9658 121.489 22.9113 121.489 21.4667C121.489 20.0692 120.562 18.9896 119.155 18.9896C117.76 18.9928 116.831 20.0722 116.831 21.4667ZM149.482 41.8357C149.598 42.1227 149.772 41.7515 149.931 41.8389L149.963 41.9044L150 41.6579C149.828 41.714 149.616 41.9044 149.482 41.8357ZM148.961 41.246C149.002 41.3585 148.88 41.3585 149.067 41.2679C149.058 41.2554 149.052 41.2492 149.045 41.2398C149.027 41.246 149.005 41.2492 148.961 41.246ZM149.045 41.243C148.977 41.1524 149.133 41.2243 149.045 41.243V41.243ZM148.755 41.2398C148.724 41.1743 148.618 41.1713 148.649 41.1182C148.54 41.1899 148.571 41.2554 148.652 41.3584L148.755 41.2398ZM148.574 41.5892L148.627 41.5392C148.612 41.5113 148.596 41.5019 148.574 41.5892ZM148.68 41.4988C148.68 41.5892 148.696 41.5019 148.74 41.4302L148.627 41.5392C148.649 41.583 148.665 41.6796 148.68 41.4988ZM148.818 41.4675C148.889 41.5238 148.977 41.5549 148.877 41.6734C149.089 41.6017 149.03 41.3989 148.818 41.4675ZM149.479 42.1476L149.576 42.2225L149.638 42.1133C149.604 42.1695 149.46 42.0572 149.479 42.1476ZM148.075 41.4583C148.025 41.4207 147.938 41.3926 147.919 41.299C147.922 41.3647 147.982 41.4613 148 41.5424L148.075 41.4583ZM148 41.5424L147.888 41.6672C148.003 41.6642 148.019 41.6111 148 41.5424ZM148.596 41.9231L148.774 41.6704L148.559 41.9325L148.596 41.9231ZM147.439 41.3584L147.489 41.2024L147.392 41.4394L147.439 41.3584ZM147.121 41.427C147.158 41.299 147.021 41.2305 147.064 41.1494C146.98 41.1837 146.921 41.299 146.868 41.399C146.93 41.3396 147.008 41.3428 147.121 41.427ZM146.774 41.5549C146.805 41.5206 146.834 41.4645 146.868 41.4021C146.834 41.4364 146.802 41.48 146.774 41.5549ZM147.548 41.4988L147.623 41.6704L147.673 41.6672C147.679 41.6828 147.685 41.6891 147.685 41.6672H147.673C147.657 41.6298 147.623 41.533 147.548 41.4988ZM147.514 41.6766C147.529 41.6766 147.56 41.6766 147.626 41.6766L147.623 41.6704C147.567 41.6734 147.529 41.6766 147.514 41.6766ZM148.212 42.1727C148.25 42.0448 148.153 41.9699 148.244 41.8046C148.184 41.9136 148.044 42.0416 148.212 42.1727ZM147.916 41.9012C147.907 41.8544 147.872 41.7889 147.903 41.7359L147.776 41.8793L147.723 41.8731L147.716 41.948L147.776 41.8825L147.916 41.9012ZM147.027 41.6891C146.98 41.7732 146.918 41.7889 146.849 41.8138C146.93 41.8389 147.011 41.8451 147.086 41.8357C147.089 41.7764 147.108 41.6704 147.027 41.6891ZM147.32 41.6985L147.308 41.711C147.317 41.7234 147.323 41.7296 147.32 41.6985ZM146.16 41.9074H146.147L146.163 41.9387L146.16 41.9074ZM147.22 41.7827C147.18 41.8076 147.136 41.8232 147.086 41.8327C147.083 41.8606 147.086 41.8763 147.102 41.8638C147.167 41.8919 147.195 41.8419 147.22 41.7827ZM146.59 41.6642C146.624 41.6985 146.665 41.7234 146.706 41.7483C146.665 41.6953 146.593 41.6174 146.59 41.6642ZM147.283 41.6642L147.289 41.6547C147.267 41.6204 147.27 41.636 147.283 41.6642ZM147.308 41.711C147.298 41.6985 147.289 41.6828 147.283 41.6642C147.255 41.6953 147.239 41.7421 147.22 41.7827C147.255 41.764 147.283 41.7391 147.308 41.711ZM146.06 42.1914C146.119 42.2756 146.384 42.3597 146.294 42.5252C146.132 42.6343 146.141 42.4877 146.044 42.4129C146.147 42.6094 145.866 42.7404 145.951 43.0368L146.088 42.9089C146.097 42.9557 146.054 43.0368 146.1 43.0742C146.085 42.9089 146.216 42.7341 146.372 42.8934C146.481 42.753 146.322 42.2225 146.163 41.9355C146.166 42.0104 146.175 42.0759 146.06 42.1914ZM146.247 41.6953C146.166 41.7889 146.156 41.8514 146.16 41.9074L146.431 41.8919L146.415 41.9199L146.465 41.8919C146.4 41.8731 146.347 41.8138 146.247 41.6953ZM146.715 41.8793C146.762 41.8419 146.805 41.8263 146.849 41.8138C146.799 41.7983 146.749 41.7764 146.702 41.7515L146.709 41.7608V41.764C146.721 41.7859 146.727 41.7983 146.715 41.7859L146.709 41.7889C146.712 41.8138 146.709 41.8357 146.706 41.8576C146.624 41.8327 146.687 41.8108 146.709 41.7889V41.7608L146.706 41.7578L146.462 41.8919C146.521 41.9074 146.587 41.895 146.706 41.8576C146.69 42.0416 146.568 42.1384 146.677 42.3193C146.837 42.285 146.768 42.1539 146.852 42.0635C146.606 42.1446 146.918 41.9542 146.715 41.8793ZM148.128 42.5783C148.119 42.5626 148.116 42.5501 148.116 42.5377C148.1 42.5626 148.097 42.5783 148.128 42.5783ZM148.097 42.3193L148.081 42.3473C147.969 42.3005 147.807 42.0946 147.822 42.0665C147.876 42.2225 147.916 42.3348 148.007 42.4847C148.022 42.4565 148.028 42.3816 148.091 42.3941C148.15 42.4409 148.103 42.4815 148.113 42.5377C148.144 42.4847 148.225 42.3911 148.097 42.3193ZM147.158 42.3348L147.289 42.4752L147.27 42.3816C147.398 42.4003 147.355 42.2912 147.361 42.2163L147.158 42.3348ZM146.107 41.6298L146.022 41.9136L146.107 41.8232V41.6298ZM145.757 41.8263L145.829 41.8825L145.816 41.7172L145.757 41.8263ZM142.977 42.4097C142.887 42.3535 142.818 42.3348 142.759 42.338C142.874 42.4222 142.98 42.5658 142.977 42.4097ZM142.762 42.338C142.678 42.2725 142.587 42.2412 142.531 42.3786C142.547 42.3941 142.563 42.4003 142.581 42.4129C142.634 42.3754 142.687 42.338 142.762 42.338ZM145.08 42.7404C145.077 42.6968 145.083 42.6656 145.089 42.65C145.083 42.6718 145.077 42.7 145.08 42.7404ZM144.796 42.051C144.771 42.0323 144.743 42.0197 144.712 42.0104C144.725 42.0197 144.753 42.0354 144.796 42.051ZM144.712 42.0072C144.7 41.998 144.69 41.9886 144.693 41.9823C144.7 41.9604 144.749 41.9604 144.693 41.9823C144.675 41.9886 144.653 41.9948 144.612 42.0042C144.647 41.9948 144.678 42.001 144.712 42.0072ZM145.093 42.6468C145.099 42.6343 145.108 42.6343 145.114 42.625C145.108 42.6281 145.099 42.6343 145.093 42.6468ZM145.72 42.051C145.542 41.998 145.42 42.2943 145.305 42.4409L145.461 42.5969C145.43 42.9121 145.202 42.5937 145.114 42.625C145.167 42.5813 145.261 42.6281 145.277 42.6936L145.202 42.4441C144.999 42.3724 144.884 42.5937 144.771 42.7404C144.909 42.806 144.646 42.9183 144.765 43.0836L144.859 43.0368C144.918 43.118 144.834 43.2116 144.793 43.2957C144.456 43.1585 143.913 43.4112 143.77 43.2272C143.845 43.2833 143.951 43.2084 143.994 43.1242L143.832 43.04C143.951 43.0119 144.079 43.224 144.241 43.1117C144.185 42.9557 144.275 42.7155 144.107 42.5128C143.729 42.3131 143.901 42.9776 143.489 42.9776C143.461 43.0336 143.53 42.6998 143.33 42.8247C143.087 43.0336 142.956 43.4361 143.018 43.7856C143.112 43.6639 143.302 43.4174 143.38 43.6639C143.286 43.7856 143.102 43.8854 143.121 44.0507C142.952 43.7794 143.318 43.926 143.124 43.7075C143.046 43.7294 143.031 43.8324 143.002 43.8885C143.034 43.7575 142.896 43.6982 142.859 43.6327C142.603 43.6763 142.432 43.5765 142.154 43.6014C142.169 43.6265 142.172 43.6327 142.148 43.6014H142.154C142.132 43.5609 142.085 43.4737 142.079 43.4018C141.96 43.5048 141.851 43.979 141.935 44.1506C141.783 44.1911 141.745 44.0539 141.63 44.16C141.892 44.3814 141.58 44.1224 141.611 44.4095C141.483 44.4687 141.536 44.2815 141.461 44.2285C141.446 44.2628 141.408 44.3659 141.421 44.4408C141.296 44.2442 141.474 43.8541 141.327 43.6265C141.227 43.4799 140.94 43.3144 140.965 43.2989C140.706 43.4673 141.318 44.2753 141.212 44.7682C141.177 44.9337 141.049 44.6185 140.987 44.6154C140.762 44.3878 140.769 44.8775 140.606 44.8026L140.684 44.631C140.647 44.5686 140.454 44.6997 140.441 44.8026C140.416 44.7122 140.45 44.3034 140.363 44.2098C140.095 44.216 139.961 44.7746 140.036 45.046C140.036 45.046 140.223 44.578 140.273 44.6903C140.388 44.9461 140.357 44.996 140.213 45.2394C140.167 45.3205 139.855 45.3268 139.836 45.2332C139.826 45.1864 140.004 45.1209 139.92 45.0054C139.767 45.0522 139.833 44.9835 139.705 44.8961C139.817 44.5686 139.983 43.7481 140.026 43.3674C140.026 43.3674 139.933 43.5673 139.87 43.5609C139.833 43.5578 139.795 43.4361 139.795 43.4361C139.586 43.6701 139.745 44.7465 139.555 44.8682C139.352 44.996 139.34 44.3378 139.352 44.2347C139.337 44.2379 139.324 44.2474 139.312 44.2536C139.321 44.3221 139.324 44.3908 139.318 44.4595C139.284 44.7746 139.118 45.0211 138.853 45.1583C138.831 45.1707 138.806 45.1801 138.781 45.1864C137.337 45.6449 135.905 46.0256 134.523 46.3188C133.309 46.5809 132.03 46.8087 130.723 47.0021C129.865 47.1268 129.069 47.1893 128.349 47.1893C127.943 47.1893 127.563 47.1704 127.204 47.13C127.188 47.1268 127.176 47.1268 127.16 47.1236C125.248 46.7275 125.079 45.6044 125.148 44.9711C125.213 44.3783 125.488 43.7326 125.965 43.0493C126.412 42.4065 126.926 41.7921 127.491 41.2243C127.996 40.7157 128.492 40.2634 128.963 39.8765C128.82 39.8796 128.67 39.8796 128.511 39.8796C127.472 39.889 126.39 39.8733 125.288 39.8328C125.276 39.8328 125.266 39.8328 125.254 39.8297L123.925 39.6831C123.888 39.6799 123.853 39.6737 123.819 39.6675C120.549 42.001 115.286 44.1506 112.756 44.9743C112.753 44.9743 112.744 44.9773 112.731 44.9773C112.553 45.0428 112.369 45.099 112.17 45.152C111.477 45.333 110.853 45.4266 110.32 45.4266C110.317 45.4266 110.317 45.4266 110.314 45.4266C110.26 45.4266 110.211 45.4204 110.157 45.4172C110.08 45.4204 110.001 45.4266 109.927 45.4266C109.923 45.4266 109.923 45.4266 109.92 45.4266C109.325 45.4266 108.838 45.2892 108.47 45.0211C108.136 44.7776 107.864 44.4938 107.662 44.1755C107.459 43.8605 107.325 43.5391 107.253 43.2146C107.187 42.9121 107.156 42.6719 107.156 42.4847C107.156 42.0854 107.109 41.5143 107.29 40.7376C106.941 40.7688 106.582 40.7969 106.205 40.8124C104.685 40.8718 102.717 40.2726 101.653 39.8609L99.7656 41.3303C99.753 41.3428 99.7437 41.3585 99.7281 41.3709L99.5284 41.5238C99.3912 41.6298 99.2508 41.7391 99.1042 41.8482C98.2212 42.4909 97.3196 43.0774 96.4212 43.5922C95.4697 44.1349 94.5524 44.4595 93.6945 44.5593C93.6226 44.5686 93.5509 44.5718 93.4792 44.5718C92.9739 44.5718 92.5089 44.3596 92.0971 43.9353C91.6573 43.4861 91.3983 42.9744 91.3359 42.4222C91.2704 41.8576 91.4014 41.2086 91.7259 40.488C92.0285 39.8203 92.4091 39.1559 92.8614 38.5131C92.9457 38.3946 93.0643 38.2324 93.2015 38.0452C90.0693 40.4317 86.6905 42.4597 84.5347 43.2365C84.5317 43.2365 84.4787 43.2459 84.3913 43.2584C84.1105 43.3488 83.8329 43.4206 83.5365 43.4986C83.4336 43.5267 83.3274 43.5516 83.2183 43.5797C82.4914 43.7699 81.8392 43.8667 81.2778 43.8667C80.6413 43.8667 80.1265 43.7201 79.7397 43.4361C79.3904 43.1772 79.1034 42.8777 78.8911 42.5469C78.679 42.2163 78.5356 41.8763 78.4606 41.533C78.392 41.2149 78.3608 40.9622 78.3608 40.7625C78.3608 40.357 78.4169 39.9732 78.5261 39.6144C78.3514 39.7111 78.1798 39.8016 78.0113 39.889C77.3937 40.2072 76.9631 40.4068 76.6949 40.4942C76.4453 40.6034 76.1301 40.7251 75.762 40.8561C75.4376 40.9684 75.0913 41.1056 74.7356 41.2649C74.6733 41.2928 74.6076 41.3054 74.5391 41.3054C74.3893 41.3054 74.1085 41.2554 73.9089 40.9122C73.8028 40.7376 73.7498 40.5597 73.7498 40.3881C73.7498 39.9201 73.9932 39.7267 74.1398 39.655C74.1553 39.6456 74.171 39.6394 74.1896 39.6331C74.4672 39.5303 74.7543 39.4178 75.1224 39.2744C75.4094 39.1589 75.6746 39.0436 75.9056 38.9281C76.8196 38.4913 77.6215 38.0546 78.2891 37.624C79.0721 37.156 79.6493 36.7412 80.0018 36.3855C80.3356 36.0517 80.554 35.7552 80.6508 35.4995C80.788 35.1376 80.9221 34.8568 81.0656 34.6415C81.2778 34.3265 81.5928 34.1518 81.9579 34.1518C82.3354 34.1518 82.6786 34.2484 82.9781 34.4418C83.2338 34.6071 83.5365 34.9347 83.5365 35.5525C83.5365 35.7678 83.4553 36.0017 83.2838 36.2887L82.8439 36.9439C82.6597 37.2184 82.4757 37.5428 82.301 37.9142C82.1263 38.2823 81.9704 38.6817 81.8392 39.0966C81.7145 39.4897 81.649 39.8671 81.649 40.2228C81.649 40.538 81.7583 40.7999 81.9891 41.0309C82.2168 41.2586 82.6099 41.3739 83.1621 41.3771C83.368 41.3771 84.0669 41.2335 84.7157 41.0839C86.3318 40.5629 88.3877 39.4835 90.8649 37.8455C91.4451 37.4619 92.1034 37.0375 92.7399 36.6287C94.0189 35.8052 95.3448 34.9536 96.103 34.3825C96.2651 34.2608 96.3962 34.2172 96.4991 34.2484C96.811 34.1799 97.2384 34.1861 97.5506 34.289C98.3679 34.5573 98.7328 35.5182 98.6362 36.089C98.5924 36.3449 98.2992 36.791 96.7955 38.9124C96.2775 39.6425 95.7878 40.3319 95.5195 40.7438L95.4384 40.8654C95.351 40.9965 95.1015 41.3709 95.0515 41.5581C94.986 41.7795 95.404 41.7327 95.5101 41.7202C96.1872 41.6423 97.0044 41.2492 97.9404 40.5597L101.091 37.7957C101.107 37.78 101.126 37.7676 101.144 37.7551C101.382 37.6022 101.928 37.4556 102.483 37.8612L102.726 38.0421C103.344 38.5069 103.79 38.8407 105.284 39.006C105.908 39.0747 106.835 39.0123 107.933 38.8283C108.236 38.0327 108.601 37.1841 108.941 36.5508C108.944 36.5446 108.944 36.5383 108.947 36.5321C109.668 34.9753 110.75 33.8117 112.167 33.066C112.753 32.7602 113.477 32.5949 114.101 32.6323C115.146 32.6917 115.976 33.1877 116.375 33.9927C116.781 34.81 116.675 35.7927 116.076 36.6819C114.862 38.482 113.209 39.1651 111.617 39.7922C111.54 39.8235 111.427 39.8609 111.29 39.9045C111.259 39.9139 111.228 39.9264 111.196 39.9358C111.062 40.2353 110.941 40.5504 110.834 40.881C110.713 41.2617 110.65 41.6266 110.65 41.9699C110.65 42.2788 110.76 42.5407 110.987 42.7654C111.175 42.9557 111.487 43.0617 111.895 43.0898C112.139 43.0587 112.553 42.9744 112.981 42.8808C115.283 42.2412 119.099 40.6097 121.342 39.2525C121.51 39.1527 121.669 39.0466 121.832 38.9438C121.8 38.9156 121.766 38.8906 121.735 38.8626C121.719 38.8502 121.707 38.8345 121.694 38.8189C121.498 38.5756 121.389 38.3697 121.348 38.1669C121.339 38.1201 121.336 38.0733 121.342 38.0265C121.395 37.5522 121.691 37.0531 122.253 36.4947C122.758 35.9954 123.348 35.5401 124.009 35.1438C124.655 34.7569 125.316 34.4263 125.981 34.161C126.699 33.874 127.263 33.7587 127.703 33.8085C128.271 33.8678 128.47 34.2329 128.539 34.445C128.62 34.6977 128.645 34.9598 128.617 35.2217C128.58 35.5712 127.556 36.7099 126.979 37.3245C127.042 37.3339 127.11 37.3464 127.188 37.3558L128.093 37.4556C128.486 37.4992 128.942 37.5179 129.438 37.5149C129.943 37.5149 130.48 37.493 131.035 37.4524C131.562 37.4119 132.071 37.3401 132.554 37.2371C132.604 37.2247 132.651 37.2247 132.701 37.2309C132.96 37.259 133.184 37.4119 133.365 37.677C133.534 37.9266 133.603 38.1856 133.574 38.4539C133.5 39.1527 133.122 39.602 132.511 39.7329C132.23 39.8952 131.865 40.1292 131.428 40.4287C130.96 40.7531 130.505 41.1275 130.077 41.5392C129.637 41.9636 129.241 42.3973 128.904 42.8247C128.605 43.2053 128.436 43.5546 128.402 43.8698C128.377 44.0851 128.442 44.2504 128.614 44.4064C128.729 44.5125 129.051 44.6997 129.918 44.7963C130.923 44.9056 131.937 44.8961 132.929 44.7714C133.939 44.6435 134.866 44.4813 135.683 44.2942C136.672 44.0819 137.608 43.8199 138.473 43.5205C138.535 43.4986 138.603 43.4891 138.669 43.4986C138.678 43.4986 138.691 43.5016 138.703 43.5048C138.722 43.4737 138.744 43.4705 138.772 43.5205C138.781 43.5235 138.791 43.5267 138.8 43.5297C138.816 43.4861 138.834 43.4455 138.859 43.4112C138.788 43.2708 139.124 43.2302 139.124 43.2365C139.115 43.302 139.187 43.224 139.281 43.2053C139.68 43.1304 139.764 42.6687 140.138 43.0244C140.089 42.99 140.023 42.9838 140.02 43.0587C140.254 42.99 140.547 43.2208 140.669 43.04L140.622 42.8558C140.781 42.7373 140.903 42.6468 141.046 42.6281C141.046 42.6281 140.975 42.4533 141.012 42.416C141.171 42.2599 141.611 42.0386 141.817 42.4471C141.836 42.2693 142.091 42.3286 142.216 42.3661C142.257 42.3786 142.275 42.522 142.275 42.522C142.438 42.5469 142.522 42.4722 142.603 42.4097C142.971 42.6905 143.196 42.3037 143.47 42.2818L143.48 42.3286L143.736 42.1695C143.689 42.3286 143.773 42.0603 143.863 42.0884C143.938 41.9948 144.085 42.0167 144.207 42.104L144.381 42.0854C144.204 42.2257 144.431 42.3161 144.472 42.5001L144.559 42.3348C144.618 42.416 144.512 42.4909 144.6 42.519C144.659 42.4065 144.88 42.3786 144.918 42.1757C144.899 42.1289 144.868 42.0916 144.827 42.0603C144.821 42.0729 144.821 42.0697 144.824 42.0572L144.815 42.0478L144.824 42.051C144.831 42.0323 144.84 41.998 144.843 41.9729C144.827 41.9699 144.812 41.9667 144.79 41.9636C144.837 41.9231 144.846 41.9418 144.846 41.9729C144.993 41.9918 144.927 41.9231 144.912 41.8419C145.114 42.1071 145.174 41.8982 145.345 42.2195C145.124 41.8606 145.704 42.1571 145.548 41.8076C145.688 42.0884 145.607 41.8108 145.72 42.051ZM112.266 37.6459C113.146 37.2465 113.811 36.6287 114.407 35.7678C114.525 35.5993 114.687 35.147 114.254 35.1281C114.197 35.1251 114.085 35.1719 113.957 35.3372C113.312 36.1702 112.834 36.8254 112.266 37.6459ZM144.069 42.2475C143.994 42.2195 143.957 42.1944 144.066 42.2569C144.066 42.2537 144.069 42.2475 144.069 42.2475ZM145.299 41.9136C145.289 41.8668 145.255 41.8046 145.292 41.7951L145.171 41.8668C145.233 41.8482 145.264 41.8887 145.299 41.9136ZM146.59 42.8715C146.606 42.8434 146.631 42.8621 146.643 42.834L146.624 42.7404C146.546 42.7622 146.5 42.8434 146.59 42.8715ZM145.514 42.4409C145.551 42.6094 145.62 42.5377 145.707 42.4909C145.701 42.4939 145.698 42.4939 145.692 42.4939C145.679 42.2569 145.595 42.3505 145.514 42.4409ZM145.726 42.4847C145.751 42.4722 145.779 42.4628 145.807 42.469C145.804 42.3692 145.77 42.4533 145.726 42.4847ZM144.519 42.1508C144.568 42.1882 144.512 41.9325 144.547 41.9948C144.562 41.7732 144.303 42.3005 144.519 42.1508ZM145.579 42.9589L145.667 42.9868L145.604 42.7841L145.579 42.9589ZM145.121 42.9026C145.03 42.9089 144.927 42.884 144.943 42.9432L145.096 42.9776C145.083 42.9464 145.099 42.9213 145.121 42.9026C145.167 42.8996 145.211 42.887 145.23 42.8496C145.205 42.8558 145.152 42.8715 145.121 42.9026ZM145.333 43.043L145.486 43.0804L145.436 43.043H145.333ZM143.355 43.3082C143.383 43.2521 143.436 43.2146 143.402 43.1491L143.258 43.2365C143.252 43.3114 143.302 43.3457 143.355 43.3082ZM143.907 43.7513L143.963 43.639C143.913 43.6014 143.904 43.5578 143.87 43.4923L143.907 43.7513ZM143.523 43.7731C143.52 43.8479 143.336 44.0196 143.526 43.9666C143.53 43.8947 143.676 43.8075 143.523 43.7731ZM139.365 44.9616C139.224 44.8993 139.209 45.046 139.321 45.3081C139.524 45.3704 139.305 45.0397 139.496 45.1301C139.518 45.0211 139.455 45.0022 139.365 44.9616ZM79.2281 29.3816C76.8415 31.5061 74.5204 33.4654 72.3303 35.203C70.237 36.8627 68.4649 38.2231 67.0641 39.2432C66.4838 41.7764 66.2311 44.0975 66.3123 46.141L66.3434 46.9302C66.3591 47.2797 66.3061 47.6041 66.1875 47.8973C66.0345 48.2687 65.682 48.5276 65.1361 48.668C64.9738 48.7242 64.7711 48.7584 64.5339 48.7678C64.4996 48.771 64.4622 48.771 64.4279 48.771C63.7291 48.771 63.3579 48.4714 63.1675 48.2187C62.9148 47.8849 62.7806 47.5012 62.762 47.0768C62.737 44.3159 63.2454 41.2149 64.2782 37.8612C65.0457 35.3716 66.0128 32.8227 67.1671 30.2614C67.1047 30.3206 67.0422 30.3831 66.9799 30.4424C64.6588 32.6542 62.4032 34.6883 60.2786 36.4915C58.2415 38.2231 56.5162 39.6394 55.1528 40.7063C54.6568 43.2614 54.4821 45.5887 54.6319 47.6229L54.6912 48.4091C54.7161 48.7584 54.6723 49.086 54.5663 49.3824C54.4259 49.7599 54.0796 50.0314 53.5399 50.1843C53.3808 50.2465 53.1811 50.2871 52.9409 50.3058C52.8754 50.309 52.8162 50.3122 52.76 50.3122C52.108 50.3122 51.746 50.0314 51.5588 49.7974C51.2967 49.4728 51.1471 49.0922 51.1159 48.6712C51.0348 46.8179 51.1969 44.7963 51.587 42.6468L51.4122 42.7404C51.0348 42.9464 50.5449 43.2208 49.9616 43.5578C49.3657 43.9041 48.7043 44.2504 47.9993 44.5904C47.3035 44.9243 46.611 45.23 45.9339 45.5015C45.2383 45.7823 44.5986 45.9569 44.034 46.0255C43.4101 46.1005 42.8829 46.0161 42.4617 45.7791C42.0811 45.5638 41.7627 45.2986 41.5132 44.9929C41.2606 44.6872 41.0764 44.3659 40.9673 44.0383C40.8612 43.7294 40.7988 43.4829 40.7769 43.2895C40.7301 42.8777 40.7395 42.4722 40.805 42.0821C40.7239 42.1571 40.6365 42.232 40.5491 42.3129C39.8566 42.9308 39.0642 43.5671 38.1937 44.2036C37.314 44.8463 36.4093 45.4358 35.5077 45.9506C34.553 46.4935 33.6327 46.8211 32.7686 46.921C32.6967 46.9302 32.6219 46.9334 32.5501 46.9334C32.0353 46.9334 31.5643 46.7151 31.1463 46.2877C30.7002 45.8321 30.4411 45.3173 30.3756 44.7557C30.3101 44.1879 30.4411 43.5329 30.7656 42.806C31.0682 42.1352 31.452 41.4675 31.9043 40.825C32.3412 40.2009 32.781 39.6082 33.2147 39.0623C33.6046 38.5694 33.9103 38.2199 34.1475 37.9953C34.1631 37.9672 34.1786 37.9453 34.1973 37.9234C34.2879 37.8081 34.422 37.7363 34.5717 37.7208L34.8057 37.6926C35.1365 37.6521 35.4359 37.73 35.6699 37.9204C35.7728 38.0016 35.9007 38.1574 35.9319 38.4195C35.9662 38.716 35.8321 39.0528 35.5014 39.5084C35.255 39.8422 34.9836 40.2228 34.6934 40.6346C34.4126 41.0339 34.1599 41.4645 33.9446 41.9106C33.7544 42.3037 33.6857 42.6873 33.7325 43.0804C33.7668 43.3738 33.8791 43.6077 34.0757 43.8043C34.3003 44.0258 34.4656 44.032 34.5717 44.0196C35.2456 43.9415 36.066 43.5484 37.0052 42.8528C38.0003 42.1165 38.9738 41.2835 39.9004 40.3787C40.989 39.3212 42.1184 38.1482 43.2571 36.8878C43.3352 36.8004 43.4443 36.7442 43.5598 36.7318C43.9185 36.6882 44.2368 36.7223 44.5112 36.8348C44.7641 36.9408 45.0822 37.1997 45.1572 37.8298C45.1821 38.0421 45.129 38.2916 44.9917 38.5911C44.9854 38.6035 44.9792 38.6192 44.97 38.6317C44.9324 38.6971 44.8109 38.9562 44.5301 39.8733C44.3304 40.5253 44.2648 41.165 44.3367 41.7764C44.3491 41.8857 44.3772 42.0416 44.4208 42.2412C44.4552 42.4097 44.5269 42.5907 44.6299 42.7747C44.7265 42.9432 44.8545 43.0868 45.0198 43.2084C45.1353 43.2927 45.3412 43.3238 45.6125 43.2895C46.015 43.2427 46.4611 43.121 46.9416 42.9308C47.4596 42.7249 47.9806 42.5001 48.4827 42.2599C48.9819 42.0261 49.4623 41.7859 49.9054 41.5487C50.3296 41.3241 50.6853 41.1399 50.935 41.0214L52.0674 40.4068C52.1485 40.0762 52.2297 39.7454 52.3201 39.4086C53.2342 36.0422 54.507 32.5638 56.1012 29.0727C57.6954 25.5786 59.5955 22.1219 61.748 18.7962C63.8976 15.4706 66.1719 12.4475 68.5024 9.81447C70.8422 7.17202 73.2319 4.98492 75.6061 3.31902C78.0238 1.6219 80.3324 0.679726 82.4695 0.523741C83.6395 0.436389 84.5411 0.639172 85.1556 1.12273C85.7921 1.62501 86.157 2.65138 86.2757 4.26425C86.2787 4.2986 86.2757 4.33614 86.2787 4.37048C87.1087 3.71529 87.9384 3.11011 88.7621 2.57023C91.2361 0.954258 93.5758 0.093208 95.7161 0.00585564C96.8922 -0.0409433 97.7844 0.193034 98.3835 0.698446C98.9981 1.21945 99.3287 2.24584 99.3942 3.84323V3.87118C99.4535 5.37497 98.867 7.18447 97.6441 9.24665C96.4585 11.2526 94.883 13.4208 92.9582 15.6951C91.0489 17.9539 88.8587 20.2905 86.4565 22.6397C84.0513 24.9859 81.6209 27.254 79.2281 29.3816ZM69.8751 24.8393C71.2353 22.3684 72.7421 19.935 74.3863 17.5733C76.6481 14.3225 79.0222 11.3774 81.4399 8.82227C81.6802 8.56958 81.9204 8.32313 82.1606 8.07988C82.7097 6.76951 82.9562 5.65256 82.8907 4.75413C82.8596 4.32991 82.7129 3.96478 82.4446 3.64038C82.2512 3.40639 81.9111 3.28787 81.4399 3.28787C81.3652 3.28787 81.2841 3.2909 81.2029 3.29713C79.6774 3.40958 78.0519 4.03043 76.3703 5.14098C74.6514 6.27661 72.9074 7.78663 71.1915 9.62408C69.4633 11.4741 67.7536 13.6299 66.1094 16.0322C64.456 18.4499 62.9148 21.0144 61.5265 23.6568C60.132 26.3118 58.8997 29.0384 57.8577 31.7588C57.0028 33.9895 56.2946 36.1764 55.7487 38.2573C56.8843 37.3526 58.2009 36.2357 59.664 34.9285C61.6233 33.1784 63.6947 31.2098 65.8194 29.0759C67.1733 27.7125 68.5303 26.2931 69.8751 24.8393ZM78.1206 27.9839C80.3013 25.9342 82.5101 23.738 84.6783 21.4543C86.8279 19.1892 88.7808 16.9368 90.4873 14.7561C92.1813 12.5909 93.5572 10.5538 94.5773 8.70072C95.5695 6.90368 96.0468 5.40611 96 4.24877C95.9843 3.82438 95.8501 3.45318 95.5912 3.11936C95.3916 2.86348 95.0266 2.73252 94.5024 2.73252C94.4588 2.73252 94.412 2.73252 94.3652 2.73571C92.8397 2.79497 91.1955 3.35959 89.4734 4.41728C88.2722 5.15663 87.0524 6.07073 85.8358 7.1407C85.5737 7.93948 85.1993 8.79112 84.7064 9.69579C83.5927 11.7363 82.0889 13.9575 80.2388 16.2973C78.3982 18.6246 76.2924 21.0331 73.9743 23.454C73.5813 23.8627 73.1882 24.2683 72.7921 24.6738C71.7999 26.5612 70.889 28.4768 70.0809 30.3956C69.1512 32.5949 68.3682 34.7569 67.7536 36.8191C68.9234 35.9518 70.2774 34.8787 71.7782 33.6245C73.7966 31.9367 75.9305 30.0368 78.1206 27.9839ZM85.6549 26.6112C85.2867 26.839 84.9622 27.1291 84.6878 27.4691C84.4224 27.7999 84.1979 28.1586 84.0231 28.5298C83.8329 28.9323 83.7361 29.3161 83.7331 29.6655C83.7331 30.124 83.8765 30.4829 84.1573 30.7356C84.4256 30.9726 84.8031 31.0943 85.2805 31.0943H85.2835C85.6954 31.0943 86.0978 30.9664 86.4722 30.7169C86.8122 30.4922 87.1242 30.2052 87.3987 29.8621C87.6608 29.5313 87.8854 29.1758 88.0633 28.8014C88.2536 28.3958 88.3504 28.0152 88.3504 27.6657C88.3504 26.7579 87.7856 26.2368 86.8028 26.2368C86.4565 26.2431 86.051 26.3648 85.6549 26.6112ZM35.1833 33.2033L35.1895 33.1971C35.5171 32.7291 35.8571 32.2455 36.1566 31.7495C36.4312 31.294 36.9647 30.3269 37.1798 29.9338C37.4451 29.4097 37.991 28.1088 37.3453 27.3538C36.9022 26.8358 36.1066 26.7703 34.9087 27.1509C34.6247 27.2415 34.2286 27.3787 33.7419 27.5472C31.7826 28.2273 28.5038 29.366 24.9629 30.0742C24.657 30.1366 24.3483 30.1989 24.0519 30.2614L24.002 30.2706C23.013 30.4767 22.0802 30.6731 21.138 30.7762C18.5643 31.057 16.5519 31.0725 15.3508 31.0787C15.017 31.0819 14.73 31.0819 14.5241 31.0911C13.635 31.1225 12.9143 31.113 12.3871 31.0632C12.2747 31.0507 12.1687 31.0413 12.0876 31.0381C11.9721 31.0351 11.8598 31.0413 11.76 31.0662C11.4418 31.1317 11.2733 31.3034 11.1891 31.4344C11.058 31.6372 11.0237 31.8837 11.083 32.1675C11.2265 32.8508 11.5978 33.4249 12.1905 33.8802C12.7739 34.3265 13.6849 34.5448 14.9796 34.5448C15.0014 34.5448 15.0233 34.5448 15.0451 34.5448C15.4943 34.5199 16.5551 34.4263 18.2865 34.2578C19.9994 34.0893 22.0584 33.7524 24.4076 33.2563C26.5228 32.8102 28.3821 32.3796 29.9389 31.9835C30.4005 31.865 30.8592 31.7495 31.3054 31.6372L31.3771 31.6184C32.3536 31.3751 33.3643 31.1225 34.3315 30.8417C34.3565 30.8354 34.3815 30.826 34.4064 30.8198C33.5142 32.2768 32.4378 33.7866 31.0246 35.5744C29.2588 37.8081 24.9629 42.232 20.0554 44.6654C18.5267 45.4204 16.8546 45.9601 14.939 46.3126C13.6506 46.5496 12.4214 46.609 11.2795 46.4873C10.1533 46.3688 9.10506 46.0474 8.16913 45.5294C7.23943 45.0148 6.4439 44.3004 5.80747 43.408C5.16791 42.5158 4.7249 41.4021 4.48468 40.0979C4.08847 37.9516 4.18518 35.7178 4.76859 33.456C5.35822 31.1661 6.29103 28.9199 7.53895 26.7798C8.79309 24.627 10.3249 22.5461 12.0876 20.5964C13.1452 19.4295 14.2683 18.3002 15.4288 17.2395C16.3336 16.4783 17.1509 15.8325 17.9278 15.2647C20.1834 13.6112 22.5949 12.151 25.1001 10.9188C27.6022 9.68956 30.1073 8.74432 32.5533 8.10479C33.5891 7.83343 34.684 7.60246 35.8071 7.41224C36.9116 7.22807 38.0722 7.0971 39.2544 7.02539C39.4729 7.03162 39.7007 7.04408 39.9253 7.06899C39.9066 7.10013 39.8785 7.1407 39.8317 7.19373C39.5852 7.41224 39.3637 7.65549 39.1765 7.92383C38.927 8.27953 38.8396 8.61958 38.9206 8.92832C39.008 9.25288 39.3201 9.58048 39.9158 9.42442C39.9534 9.415 39.9908 9.39951 40.0251 9.38082C40.6771 9.02192 41.2543 8.60713 41.7378 8.13914C42.1652 7.72098 42.5177 7.25938 42.7923 6.76631C43.1074 6.20169 43.1791 5.58708 43.0076 4.93509C42.8266 4.24557 42.3556 3.76512 41.6412 3.54678C41.0234 3.35656 40.3152 3.28787 39.5352 3.3409C38.7802 3.39073 37.9848 3.50621 37.1643 3.68718C36.3531 3.86192 35.6075 4.03969 34.943 4.21442C32.3036 4.90395 29.5302 5.98016 26.6975 7.41527C23.8679 8.84735 21.0818 10.5476 18.4114 12.4694C17.5658 13.0776 16.7079 13.736 15.7065 14.5502C15.6347 14.5657 15.563 14.6033 15.5068 14.6501C14.9952 15.0837 14.4711 15.5423 13.9064 16.0539L13.7254 16.2005C13.6974 16.2256 13.6724 16.2535 13.6537 16.2816C12.412 17.4173 11.2203 18.5935 10.1128 19.7727C7.90707 22.1187 5.98217 24.5834 4.3911 27.0949C2.79066 29.6156 1.57706 32.1832 0.787759 34.7258C-0.0109013 37.2996 -0.204328 39.7673 0.216842 42.0572C0.762802 45.0179 2.1199 47.2921 4.25381 48.8241C5.80434 49.9378 7.65438 50.5024 9.75085 50.5024C10.5339 50.5024 11.3638 50.4213 12.2155 50.2654C13.8003 49.9752 15.4694 49.4417 17.176 48.6837C18.8605 47.9349 20.5921 47.0644 22.3267 46.091C25.4307 44.0602 28.1451 41.9418 29.5894 40.4225C31.5424 38.3697 33.1896 36.0673 34.9898 33.4841L35.1833 33.2033Z" fill="white"/>
</svg>
