<svg width="173" height="44" viewBox="0 0 173 44" fill="none" xmlns="http://www.w3.org/2000/svg">
<path d="M66.8498 17.3284C66.8498 16.4166 66.5019 15.5748 65.806 14.9436C65.0404 14.2421 64.2749 13.9615 63.2311 13.9615C61.2128 13.9615 59.8209 15.1539 59.6122 17.2583C59.2643 20.2044 59.2643 21.6072 59.2643 25.0442L59.3338 29.9544C59.3338 29.9544 59.473 32.3393 59.473 33.602C57.8028 35.3555 55.5759 36.8285 53.2794 36.6882C51.8179 36.6181 49.73 35.4256 49.6605 31.217L49.7997 24.6936L50.1476 20.3447L50.4955 17.4687C50.4955 16.4866 50.1476 15.645 49.4517 14.9436C48.6862 14.3124 47.7814 13.9615 46.8071 13.9615C44.8586 13.9615 43.6059 15.0839 43.2579 17.118C42.7013 20.4148 42.7013 22.94 42.7013 25.1144C42.7013 28.5515 42.4924 31.4274 43.1884 36.057C43.5363 38.512 44.7194 40.1955 46.5287 41.879C48.1294 42.9311 49.5909 43.9131 53.0009 43.9131C55.5759 43.9131 58.29 42.5804 60.0298 41.0372C60.3082 42.7908 60.8649 43.8429 63.0919 43.9131C64.0662 43.9131 64.9709 43.5625 65.6668 42.9311C66.4324 42.1596 66.7803 41.3178 66.7803 40.3358L66.7108 39.0731L66.6411 37.9508L66.5716 36.8987L66.4324 31.4274L66.5019 26.0262L66.9195 17.7492C66.8498 17.5389 66.8498 17.3986 66.8498 17.3284Z" fill="#FFFFFF"/>
<path d="M171.379 14.312C170.752 13.6808 169.778 13.3299 169.012 13.3299C168.316 13.2599 167.899 13.2599 167.203 13.4002C165.394 13.7508 163.027 14.5225 160.661 16.9775C160.035 14.312 158.434 13.821 157.251 13.821C155.998 13.821 153.771 14.1717 153.771 17.3282V40.1953C153.771 42.51 155.024 43.9129 157.182 43.9129C159.548 43.9129 160.87 42.5802 160.87 40.1953C160.87 40.1953 160.8 28.4812 160.8 27.0081C160.731 24.5531 163.167 22.0278 165.463 21.3966C166.507 21.116 167.064 20.9757 168.038 20.9055C168.108 20.9055 168.804 20.8354 168.874 20.8354C169.847 20.7652 170.613 20.6249 171.448 19.8534C172.213 19.1519 172.562 18.0998 172.562 16.9775C172.422 15.8552 172.213 15.0837 171.379 14.312Z" fill="#FFFFFF"/>
<path d="M72.9053 0.283325C70.6088 0.283325 69.2866 1.61601 69.3561 3.93073L69.4953 11.5064V12.6988L69.6345 21.8877V30.8661L69.5649 40.1252C69.6345 42.4401 71.0264 43.7727 73.3229 43.7727C75.4107 43.7727 76.6634 42.5101 76.8722 40.2654C76.8722 40.1954 76.9417 34.3033 76.9417 34.3033V21.8176L76.8026 13.7509L76.7329 3.79043C76.6634 1.61601 75.2715 0.283325 72.9053 0.283325Z" fill="#FFFFFF"/>
<path d="M83.761 0.283325C81.4645 0.283325 80.1423 1.61601 80.2118 3.93073L80.351 11.7168L80.4206 21.8877V30.9363L80.351 40.1252C80.4206 42.4401 81.8125 43.7727 84.109 43.7727C86.1967 43.7727 87.4494 42.5101 87.6583 40.2654C87.6583 40.1954 87.7279 34.3033 87.7279 34.3033V21.8176L87.5887 14.1718V12.6286L87.4495 3.79043C87.4495 1.61601 86.0577 0.283325 83.761 0.283325Z" fill="#FFFFFF"/>
<path d="M39.2214 19.7134C38.4559 19.0119 37.4816 18.6613 36.2986 18.6613C26.4859 18.6613 17.7173 17.3987 13.7505 19.7134C12.1499 20.6954 11.9411 21.9581 12.0107 22.9401C12.0803 23.8519 12.4978 24.9742 13.1938 25.7458C14.1681 26.6577 15.1423 27.1487 16.2558 27.1487L17.9261 26.7278C20.9186 25.3951 27.5299 26.2369 31.5662 25.886C31.7054 27.9904 32.4013 30.5157 27.8083 34.3035C25.7205 36.0571 22.4495 36.6182 19.4572 36.4779C11.3843 36.0571 8.879 29.9545 8.18308 27.1487C6.93041 21.6775 7.13919 17.8196 10.6884 12.5587C12.5674 9.82297 16.6734 7.22766 21.7537 7.64854C26.834 7.99918 28.2257 10.9453 31.0095 12.4184C31.9838 12.9794 32.6797 13.26 33.306 13.26C34.35 13.26 35.2546 12.5587 36.0202 11.787C36.716 11.1558 37.0641 10.2438 36.9249 9.19174C36.9249 7.08737 34.7675 4.28155 31.9838 2.87881C29.1305 1.40567 26.1379 0.0729837 21.6842 0.00275355C18.7611 -0.0673074 13.0546 1.19531 8.80941 4.28155C5.26017 6.94708 3.10281 9.61261 1.36299 14.5226C-0.237649 18.9419 -0.307241 23.431 0.527871 27.9204C1.64135 33.8826 5.121 37.8106 8.04389 40.1956C10.9668 42.5103 15.3511 43.9833 20.2226 43.9833C25.4421 43.9833 30.244 42.37 33.8629 39.0732C38.4559 34.8645 39.4302 30.726 39.291 25.3249C40.2654 24.6236 40.8221 23.7116 40.6829 22.3789C40.5437 21.3969 40.0565 20.4851 39.2214 19.7134Z" fill="#FFFFFF"/>
<path d="M137.904 20.6255C138.809 20.4852 139.852 20.4151 140.827 20.5554C141.801 20.6957 143.471 21.4672 144.306 22.1687C142.775 22.9404 140.34 23.7821 138.252 24.6237C136.095 25.4655 134.494 26.0266 132.197 27.1489C132.685 24.8342 133.45 23.7119 134.424 22.6598C135.399 21.5375 136.999 20.7658 137.904 20.6255ZM150.709 33.7425C150.083 33.1112 149.317 32.7606 148.343 32.7606C147.299 32.7606 146.394 33.6022 145.559 34.8648C145.281 35.2857 144.306 36.3379 142.149 36.8991C136.582 38.3721 134.215 35.9171 134.215 35.9171C133.311 35.4962 132.824 34.5141 132.336 33.462C134.285 32.7606 137.765 31.498 141.384 30.0248C145.002 28.6221 148.204 27.3595 149.178 26.7281C150.987 25.6057 151.683 24.1328 151.614 22.5195C151.475 19.5734 149.039 16.9079 146.464 15.6452C144.515 14.5931 142.01 14.032 138.948 14.032C135.051 14.1022 130.736 16.6273 128.509 19.363C126.282 22.0986 125.029 26.3774 125.029 31.0069C125.029 35.2156 126.699 39.0033 129.414 40.8973C132.336 42.9314 135.19 43.8433 138.461 43.9835C141.592 44.1238 143.958 43.3523 146.603 42.1599C150.152 40.6167 151.962 38.5124 151.962 36.1976C151.822 35.1454 151.475 34.3739 150.709 33.7425Z" fill="#FFFFFF"/>
<path d="M125.17 14.8728C124.405 14.1713 123.57 13.8207 122.595 13.8207C121.204 13.8207 120.021 14.6624 119.324 16.0652C119.255 16.1354 117.098 21.6768 117.098 21.6768C115.636 25.3944 113.757 28.7614 112.644 31.2164C111.252 27.5689 106.937 16.0652 106.937 16.0652C106.311 14.5922 105.197 13.8207 103.666 13.8207C102.692 13.8207 101.787 14.1713 101.022 14.8027C100.256 15.5042 99.769 16.3457 99.8386 17.398C99.9082 18.4501 100.604 20.0634 100.604 20.0634L104.78 30.4448L108.816 40.6858C109.79 43.0708 111.461 43.632 112.644 43.632C114.592 43.632 115.845 42.5096 116.054 40.6158C116.123 40.4755 122.039 28.4106 122.039 28.4106C125.17 21.6768 126.423 17.6786 126.423 17.398C126.353 16.416 125.936 15.5042 125.17 14.8728Z" fill="#FFFFFF"/>
<path d="M97.6112 4.00099C96.8458 3.22931 95.8715 2.87866 94.6884 2.87866C93.5054 2.87866 92.5311 3.29954 91.7655 4.07105C91 4.77251 90.5825 5.75455 90.652 6.87688C90.652 7.9992 91.1392 9.0513 92.0439 9.82282C92.879 10.5945 93.9228 10.9451 94.9668 10.9451C96.0106 10.9451 96.985 10.5945 97.8201 9.82282C98.5857 9.0513 99.0728 8.06927 99.0031 6.87688C98.9336 5.75455 98.4465 4.70245 97.6112 4.00099Z" fill="#FFFFFF"/>
<path d="M98.1698 17.6089C98.1003 16.206 97.4739 15.3645 96.9868 14.9436C96.3604 14.3124 95.4557 13.9615 94.4119 13.9615C93.3679 13.9615 92.4631 14.3122 91.7673 15.0136C91.1409 15.645 90.793 16.5568 90.8625 17.6089C90.8625 17.6089 90.7233 20.4848 90.793 24.6936C90.8625 29.6038 91.0714 40.1955 91.0714 40.1955C91.0714 41.2476 91.4888 42.0893 92.1849 42.7908C92.9503 43.4922 93.855 43.7728 94.8293 43.7728C95.8733 43.7728 96.7084 43.4222 97.4042 42.7908C98.1003 41.949 98.3785 41.1073 98.3785 40.1252C98.3785 40.1252 98.0306 29.3232 98.0306 24.2727C98.0306 19.9238 98.1698 17.6089 98.1698 17.6089Z" fill="#FFFFFF"/>
</svg>
