<svg width="75" height="20" viewBox="0 0 75 20" fill="none" xmlns="http://www.w3.org/2000/svg">
<path fill-rule="evenodd" clip-rule="evenodd" d="M15.7877 8.89967C16.2936 8.89967 16.7102 9.04961 17.0376 9.34956C17.3947 9.67954 17.603 10.0694 17.6625 10.4894C17.722 11.0593 17.484 11.4492 17.0673 11.7491C17.1268 14.0587 16.7102 15.8284 14.7462 17.6281C13.1987 19.0379 11.1453 19.7277 8.91335 19.7277C6.83025 19.7277 4.95544 19.0979 3.70556 18.1081C2.45569 17.0882 0.967738 15.4085 0.491595 12.859C0.134488 10.9393 0.164247 9.01965 0.848703 7.1299C1.59268 5.0303 2.5152 3.89048 4.03291 2.75066C5.8482 1.43093 8.28842 0.891018 9.53835 0.920977C11.4429 0.951009 12.7225 1.52088 13.9427 2.15082C15.133 2.75066 16.0555 3.95047 16.0555 4.85033C16.1151 5.30022 15.9662 5.6902 15.6687 5.96012C15.3413 6.29011 14.9545 6.58999 14.5081 6.58999C14.2402 6.58999 13.9427 6.47001 13.526 6.23012C13.1483 6.03025 12.8306 5.76699 12.5034 5.49588C11.7992 4.9125 11.0513 4.2928 9.56808 4.19043C7.39567 4.01046 5.63989 5.12025 4.8364 6.29011C3.3187 8.53972 3.22942 10.1894 3.76508 12.529C4.06267 13.7288 5.13399 16.3384 8.58606 16.5183C9.86564 16.5783 11.2644 16.3384 12.1571 15.5885C13.9487 14.111 13.8584 13.0827 13.7836 12.2305L13.7836 12.2305L13.7836 12.2304L13.7836 12.2304L13.7835 12.2304C13.7763 12.1484 13.7693 12.068 13.7641 11.9891C13.1556 12.042 12.4102 12.0315 11.644 12.0207C10.237 12.0009 8.75984 11.9801 7.93133 12.349L7.21712 12.529C6.74097 12.529 6.32435 12.3191 5.90772 11.9291C5.61013 11.5992 5.43158 11.1192 5.40182 10.7293C5.37207 10.3094 5.46134 9.76949 6.1458 9.34956C7.37277 8.63359 9.67406 8.718 12.4415 8.81951C13.5001 8.85834 14.6268 8.89967 15.7877 8.89967ZM29.9232 2.60107C29.8935 1.61126 30.4589 1.04138 31.4409 1.04138C32.4528 1.04138 33.048 1.61126 33.0777 2.54108L33.1075 6.80034L33.1669 10.2498V15.5889C33.1669 15.5889 33.1372 18.1084 33.1372 18.1384C33.048 19.0982 32.5123 19.6381 31.6195 19.6381C30.6375 19.6381 30.0423 19.0683 30.0125 18.0784L30.0423 14.1191V10.2797L29.9828 6.35045V5.84056L29.9232 2.60107ZM73.5492 7.0391C73.2807 6.76917 72.8644 6.61916 72.5368 6.61916C72.2394 6.5892 72.0609 6.5892 71.7633 6.64919C70.9895 6.79913 69.9777 7.12912 68.9659 8.17892C68.6981 7.0391 68.0136 6.82916 67.5077 6.82916C66.9721 6.82916 66.0198 6.9791 66.0198 8.32886V18.1072C66.0198 19.097 66.5555 19.6969 67.478 19.6969C68.4898 19.6969 69.0552 19.127 69.0552 18.1072C69.0552 18.1072 69.0254 13.0981 69.0254 12.4681C68.9957 11.4183 70.0373 10.3385 71.0193 10.0686C71.4657 9.94861 71.7037 9.88862 72.1204 9.85858C72.1353 9.85858 72.2175 9.85107 72.2995 9.84356C72.3813 9.83609 72.4629 9.82862 72.4777 9.82862C72.894 9.79859 73.2216 9.7386 73.5787 9.40869C73.9056 9.10874 74.055 8.65884 74.055 8.17892C73.9951 7.69899 73.9056 7.36908 73.5492 7.0391ZM28.8528 8.32935C28.8528 7.93945 28.704 7.5795 28.4064 7.30958C28.0791 7.00963 27.7517 6.88965 27.3054 6.88965C26.4423 6.88965 25.8471 7.39953 25.7579 8.29939C25.6091 9.5592 25.6091 10.159 25.6091 11.6288L25.6388 13.7284C25.6388 13.7284 25.6983 14.7483 25.6983 15.2882C24.9842 16.038 24.0319 16.6679 23.0498 16.6079C22.4249 16.578 21.5321 16.068 21.5023 14.2684L21.5619 11.4788L21.7107 9.61919L21.8594 8.38934C21.8594 7.96941 21.7107 7.60954 21.4131 7.30958C21.0857 7.03966 20.6988 6.88965 20.2822 6.88965C19.449 6.88965 18.9133 7.36957 18.7645 8.2394C18.5265 9.64915 18.5265 10.729 18.5265 11.6588C18.5265 11.9361 18.5233 12.2049 18.5201 12.4717V12.4718V12.472V12.4721V12.4722V12.4723V12.4724V12.4725V12.4726C18.5065 13.6198 18.4934 14.7322 18.7348 16.338C18.8836 17.3878 19.3895 18.1077 20.1632 18.8276L20.1823 18.8402C20.8594 19.2853 21.4862 19.6974 22.9308 19.6974C24.0319 19.6974 25.1925 19.1275 25.9364 18.4676C26.0555 19.2175 26.2935 19.6674 27.2458 19.6974C27.6625 19.6974 28.0493 19.5475 28.3469 19.2775C28.6743 18.9476 28.8231 18.5876 28.8231 18.1677L28.7933 17.6278L28.7635 17.1478L28.7338 16.6979L28.6743 14.3583L28.704 12.0487L28.8826 8.50932C28.8528 8.41937 28.8528 8.35938 28.8528 8.32935ZM36.0835 1.04138C35.1015 1.04138 34.5361 1.61126 34.5658 2.60107L34.6253 5.93051L34.6551 10.2797V14.1491L34.6253 18.0784C34.6551 19.0683 35.2503 19.6381 36.2323 19.6381C37.1251 19.6381 37.6607 19.0982 37.7501 18.1384C37.7501 18.1084 37.7798 15.5889 37.7798 15.5889V10.2498L37.7203 6.98031V6.32042L37.6607 2.54108C37.6607 1.61126 37.0656 1.04138 36.0835 1.04138ZM59.2361 9.73929C59.623 9.6793 60.0693 9.64934 60.4859 9.70933C60.9026 9.76932 61.6168 10.0992 61.9739 10.3992C61.532 10.6219 60.9138 10.8584 60.284 11.0992L60.2839 11.0992L60.2839 11.0992L60.2839 11.0992C59.9808 11.2151 59.675 11.3321 59.3849 11.449C59.2145 11.5154 59.0523 11.5778 58.8948 11.6384L58.8945 11.6385C58.1993 11.9058 57.5965 12.1376 56.7959 12.5288C57.0042 11.539 57.3315 11.0591 57.7482 10.6092C58.1648 10.1293 58.8493 9.79928 59.2361 9.73929ZM64.7117 15.3483C64.4439 15.0784 64.1166 14.9284 63.6999 14.9284C63.2536 14.9284 62.8667 15.2883 62.5096 15.8282C62.3905 16.0082 61.9739 16.4582 61.0514 16.6981C58.6707 17.328 57.6589 16.2782 57.6589 16.2782C57.272 16.0982 57.0637 15.6783 56.8554 15.2284C57.6887 14.9284 59.1766 14.3885 60.7241 13.7586C62.2715 13.1588 63.6405 12.6188 64.0571 12.3488C64.8308 11.8689 65.1284 11.2391 65.0986 10.5492C65.0391 9.2894 63.9976 8.14957 62.8965 7.60966C62.0632 7.15976 60.9919 6.9198 59.6825 6.9198C58.016 6.94983 56.171 8.02959 55.2187 9.19945C54.2664 10.3692 53.7307 12.1989 53.7307 14.1785C53.7307 15.9782 54.4449 17.5979 55.6055 18.4078C56.8554 19.2777 58.0755 19.6676 59.4742 19.7276C60.8133 19.7875 61.8251 19.4576 62.956 18.9478C64.4737 18.2879 65.2474 17.388 65.2474 16.3982C65.1879 15.9482 65.0391 15.6183 64.7117 15.3483ZM52.6893 6.82996C53.1059 6.82996 53.463 6.9799 53.7904 7.27985C54.1177 7.54984 54.2963 7.93975 54.3261 8.35968C54.3261 8.47966 53.7904 10.1894 52.4512 13.0688C52.4512 13.0688 49.9217 18.228 49.892 18.288C49.8027 19.0978 49.267 19.5777 48.4338 19.5777C47.9278 19.5777 47.2137 19.3378 46.7971 18.3179L45.071 13.9387L43.2854 9.49943C43.2854 9.49943 42.9879 8.80958 42.9581 8.35968C42.9283 7.90972 43.1367 7.54984 43.464 7.24989C43.7914 6.9799 44.1782 6.82996 44.5948 6.82996C45.2496 6.82996 45.7257 7.15987 45.9935 7.78973C45.9935 7.78973 47.8386 12.7089 48.4338 14.2687C48.5981 13.9063 48.8014 13.4976 49.0229 13.0522L49.0231 13.0519L49.0231 13.0518C49.4434 12.2068 49.9291 11.2302 50.3383 10.1894C50.3383 10.1894 51.2609 7.81977 51.2906 7.78973C51.5882 7.1899 52.0941 6.82996 52.6893 6.82996ZM42.0047 2.63117C41.6774 2.30119 41.2608 2.15125 40.7548 2.15125C40.249 2.15125 39.8323 2.33122 39.505 2.66113C39.1776 2.96108 38.9991 3.38102 39.0288 3.86094C39.0288 4.34087 39.2371 4.79076 39.624 5.12068C39.9811 5.45066 40.4275 5.6006 40.8739 5.6006C41.3202 5.6006 41.7369 5.45066 42.094 5.12068C42.4214 4.79076 42.6297 4.37083 42.5999 3.86094C42.5702 3.38102 42.3619 2.93112 42.0047 2.63117ZM41.7372 7.30958C41.9456 7.48955 42.2134 7.84943 42.2431 8.44933C42.2431 8.44933 42.1836 9.43922 42.1836 11.2989C42.1836 13.4585 42.3324 18.0777 42.3324 18.0777C42.3324 18.4976 42.2134 18.8575 41.9158 19.2175C41.6182 19.4875 41.2611 19.6374 40.8147 19.6374C40.3981 19.6374 40.0112 19.5174 39.6839 19.2175C39.3862 18.9175 39.2077 18.5576 39.2077 18.1077C39.2077 18.1077 39.1184 13.5785 39.0887 11.4788C39.0589 9.67911 39.1184 8.44933 39.1184 8.44933C39.0887 7.99944 39.2375 7.60954 39.5053 7.33954C39.8029 7.03959 40.1897 6.88965 40.6362 6.88965C41.0825 6.88965 41.4694 7.03966 41.7372 7.30958Z" fill="#D4D4D8"/>
</svg>
