<svg width="69" height="19" viewBox="0 0 69 19" fill="none" xmlns="http://www.w3.org/2000/svg">
<path fill-rule="evenodd" clip-rule="evenodd" d="M12.735 0.233224H12.4806C11.6412 0.233224 10.9544 0.920021 10.9544 1.75949V13.9613C10.9544 16.8866 12.6417 18.4298 15.7028 18.4298C16.8899 18.4298 20.6208 18.4044 20.6208 14.0376V1.75949C20.6208 0.920021 19.934 0.233224 19.0945 0.233224H18.8402C18.0007 0.233224 17.3138 0.920021 17.3138 1.75949V13.461C17.3138 14.5209 17.263 15.6317 15.7961 15.6317C14.3546 15.6317 14.2528 14.6481 14.2528 13.4864V1.75949C14.2613 0.911594 13.5745 0.233224 12.735 0.233224ZM34.2641 0.233224C32.8734 0.233224 31.6778 1.24229 31.4404 2.61595L29.7276 12.7063L28.0317 2.62437C27.8028 1.25078 26.6072 0.241718 25.2081 0.241718H25.1403C23.5631 0.241718 22.2828 1.52209 22.2828 3.09924V16.4542C22.2828 17.3361 23.0035 18.0568 23.8853 18.0568C24.7841 18.0568 25.5049 17.3276 25.4879 16.4288C25.4031 11.4174 25.259 2.61595 25.259 2.61595L27.9639 16.7595C28.108 17.5141 28.7694 18.0568 29.5411 18.0568H29.9396C30.7112 18.0568 31.3726 17.5056 31.5167 16.751L34.1538 2.61595C34.0945 5.44799 33.9503 13.0709 33.8825 16.4288C33.8655 17.3276 34.5863 18.0568 35.4851 18.0568H35.5274C36.4093 18.0568 37.1301 17.3361 37.1301 16.4542V3.09075C37.1301 1.51359 35.8496 0.233224 34.2641 0.233224ZM40.5133 0.233224C39.5977 0.233224 38.8512 0.979405 38.8512 1.89518V16.3779C38.8512 17.3021 39.5977 18.0398 40.5133 18.0398C41.4289 18.0398 42.1754 17.2937 42.1754 16.3779V9.34L45.2448 17.0138C45.4909 17.6328 46.0927 18.0483 46.7708 18.0483C47.9413 18.0483 48.7295 16.8612 48.2889 15.7843L45.0583 7.92401L47.9665 2.41238C48.4926 1.42031 47.7714 0.224731 46.6521 0.224731C46.0927 0.224731 45.5838 0.538504 45.3297 1.03879L42.184 7.16933V1.89518C42.1754 0.979405 41.4289 0.233224 40.5133 0.233224ZM56.9039 2.92965C57.6497 2.92965 58.2522 2.32765 58.2522 1.58147C58.2522 0.835291 57.6497 0.233224 56.9039 0.233224H50.9768C50.2304 0.233224 49.6286 0.835291 49.6286 1.58147V16.7001C49.6286 17.4463 50.2304 18.0483 50.9768 18.0483H57.1581C57.9045 18.0483 58.5063 17.4463 58.5063 16.7001V16.6492C58.5063 15.903 57.9045 15.301 57.1581 15.301H52.9017V9.82336H56.5987C57.3445 9.82336 57.947 9.22129 57.947 8.47511C57.947 7.72893 57.3445 7.12693 56.5987 7.12693H52.9017V2.92965H56.9039ZM63.9504 18.0483H64.0857C64.9762 18.0483 65.6967 17.3276 65.6967 16.4372V12.7742L68.6732 2.27676C68.9612 1.25078 68.1895 0.224731 67.1213 0.224731C66.3496 0.224731 65.6881 0.767414 65.5441 1.53058L64.0519 9.21287L62.492 1.52209C62.3394 0.767414 61.6779 0.233224 60.9148 0.233224C59.8459 0.233224 59.0743 1.25921 59.3715 2.29368L62.3394 12.5537V16.4457C62.3394 17.3276 63.0599 18.0483 63.9504 18.0483ZM2.12741 12.3926C1.28794 12.3926 0.601074 13.0794 0.601074 13.9189V14.7922C0.601074 17.7685 2.72092 18.4298 4.76445 18.4298C6.85888 18.4298 9.30935 17.8787 9.30935 14.2156V1.75949C9.30935 0.920021 8.62255 0.233224 7.78308 0.233224H7.52869C6.68929 0.233224 6.00242 0.920021 6.00242 1.75949V14.0376C6.00242 15.4282 5.57002 15.8267 4.81534 15.8267C3.88258 15.8267 3.65367 15.2501 3.65367 14.0885V13.9274C3.65367 13.0794 2.97531 12.3926 2.12741 12.3926Z" fill="#D4D4D8"/>
</svg>
