<svg width="168" height="32" viewBox="0 0 168 32" fill="none" xmlns="http://www.w3.org/2000/svg">
<path fill-rule="evenodd" clip-rule="evenodd" d="M7.57188 14.0155C7.73359 11.6635 9.64462 9.75254 11.9967 9.59081C13.0845 9.5173 14.0988 9.79659 14.9367 10.3405C16.0981 11.0902 17.6269 11.0902 18.7882 10.3405C19.6261 9.79659 20.6405 9.5173 21.7283 9.59081C24.0803 9.75254 25.9913 11.6635 26.153 14.0155C26.3441 16.8086 24.1391 19.1313 21.3901 19.1313C21.5519 19.6163 21.6401 22.6593 21.6401 23.2032C21.6401 25.9374 19.3321 28.1426 16.5538 27.9661C14.2605 27.8191 12.3642 26.0257 12.1142 23.7324C12.0407 22.9974 12.1142 19.7633 12.3348 19.1313C9.57112 19.1313 7.36608 16.8086 7.57188 14.0155ZM21.6254 15.662C22.3457 15.662 22.919 15.074 22.919 14.3683C22.919 13.648 22.331 13.0747 21.6254 13.0747C20.905 13.0747 20.3317 13.6627 20.3317 14.3683C20.3317 15.074 20.905 15.662 21.6254 15.662ZM12.3348 15.662C13.0551 15.662 13.6284 15.074 13.6284 14.3683C13.6284 13.648 13.0403 13.0747 12.3348 13.0747C11.6144 13.0747 11.0412 13.6627 11.0412 14.3683C11.0265 15.074 11.6144 15.662 12.3348 15.662ZM14.3634 24.4087H19.3468C19.5967 24.4087 19.7879 24.2029 19.7879 23.9677C19.7879 23.7177 19.582 23.5267 19.3468 23.5267H17.3035V17.279C17.3035 17.0291 17.1124 16.838 16.8624 16.838C16.6126 16.838 16.4214 17.0438 16.4214 17.279V23.5119H14.3634C14.1135 23.5119 13.9224 23.7031 13.9224 23.953C13.9224 24.2029 14.1135 24.4087 14.3634 24.4087ZM70.8125 0.300202H70.3715C68.9162 0.300202 67.7255 1.49087 67.7255 2.94623V24.1C67.7255 29.1715 70.6508 31.847 75.9576 31.847C78.0157 31.847 84.4838 31.8029 84.4838 24.2322V2.94623C84.4838 1.49087 83.293 0.300202 81.8377 0.300202H81.3968C79.9414 0.300202 78.7506 1.49087 78.7506 2.94623V23.2326C78.7506 25.0702 78.6625 26.996 76.1193 26.996C73.6203 26.996 73.4438 25.2906 73.4438 23.2767V2.94623C73.4586 1.47627 72.2679 0.300202 70.8125 0.300202ZM108.137 0.300202C105.726 0.300202 103.653 2.04957 103.241 4.43103L100.272 21.9243L97.3318 4.44564C96.9349 2.0643 94.8621 0.314926 92.4366 0.314926H92.3191C89.5848 0.314926 87.3651 2.53465 87.3651 5.26891V28.4219C87.3651 29.9507 88.6145 31.2002 90.1434 31.2002C91.7016 31.2002 92.9512 29.936 92.9217 28.3778C92.7747 19.6898 92.5248 4.43103 92.5248 4.43103L97.2143 28.9511C97.4641 30.2593 98.6107 31.2002 99.9485 31.2002H100.639C101.977 31.2002 103.124 30.2447 103.374 28.9364L107.945 4.43103C107.843 9.34085 107.593 22.5564 107.475 28.3778C107.446 29.936 108.695 31.2002 110.253 31.2002H110.327C111.856 31.2002 113.105 29.9507 113.105 28.4219V5.25419C113.105 2.51993 110.885 0.300202 108.137 0.300202ZM118.971 0.300202C117.383 0.300202 116.089 1.59383 116.089 3.18147V28.2896C116.089 29.8918 117.383 31.1708 118.971 31.1708C120.558 31.1708 121.852 29.8772 121.852 28.2896V16.0883L127.173 29.392C127.6 30.4651 128.643 31.1854 129.819 31.1854C131.848 31.1854 133.215 29.1275 132.451 27.2605L126.85 13.6334L131.892 4.07812C132.804 2.3582 131.554 0.285478 129.613 0.285478C128.643 0.285478 127.761 0.829453 127.321 1.69678L121.867 12.3251V3.18147C121.852 1.59383 120.558 0.300202 118.971 0.300202ZM147.386 4.97489C148.679 4.97489 149.724 3.93123 149.724 2.63761C149.724 1.34398 148.679 0.300202 147.386 0.300202H137.111C135.817 0.300202 134.773 1.34398 134.773 2.63761V28.8482C134.773 30.1418 135.817 31.1854 137.111 31.1854H147.827C149.121 31.1854 150.164 30.1418 150.164 28.8482V28.7599C150.164 27.4663 149.121 26.4226 147.827 26.4226H140.448V16.9263H146.857C148.15 16.9263 149.195 15.8825 149.195 14.5888C149.195 13.2952 148.15 12.2516 146.857 12.2516H140.448V4.97489H147.386ZM159.603 31.1854H159.837C161.381 31.1854 162.63 29.936 162.63 28.3924V22.042L167.79 3.843C168.29 2.0643 166.952 0.285478 165.1 0.285478C163.762 0.285478 162.615 1.22631 162.366 2.54938L159.779 15.8679L157.074 2.53465C156.81 1.22631 155.663 0.300202 154.34 0.300202C152.487 0.300202 151.149 2.07891 151.664 3.87233L156.81 21.6597V28.4071C156.81 29.936 158.059 31.1854 159.603 31.1854ZM52.4225 21.3804C50.9671 21.3804 49.7764 22.5711 49.7764 24.0265V25.5406C49.7764 30.7004 53.4514 31.847 56.9942 31.847C60.6253 31.847 64.8736 30.8915 64.8736 24.541V2.94623C64.8736 1.49087 63.6829 0.300202 62.2275 0.300202H61.7865C60.3313 0.300202 59.1405 1.49087 59.1405 2.94623V24.2322C59.1405 26.6432 58.3908 27.334 57.0825 27.334C55.4654 27.334 55.0685 26.3344 55.0685 24.3205V24.0412C55.0685 22.5711 53.8925 21.3804 52.4225 21.3804ZM16.8477 0.153194C22.2281 0.182641 26.9174 2.82867 29.7546 6.87127C31.357 6.59198 32.8122 7.48864 33.4003 8.79699C33.606 9.22329 33.709 9.79659 33.6943 10.1199C33.709 11.3255 33.1062 12.3544 32.2978 12.9131C32.4742 13.8833 32.5771 14.8829 32.5771 15.8972C32.4889 24.7468 25.4915 31.7589 16.8477 31.6559C8.17459 31.553 1.16256 24.5998 1.11846 15.8972C1.11846 14.8681 1.20666 13.8685 1.38306 12.8984C0.501045 12.2809 -0.013465 11.2078 0.0012353 10.1199C-0.013465 9.78187 0.104137 9.20856 0.295241 8.79699C0.883252 7.48864 2.32388 6.59198 3.92621 6.85655C6.77807 2.79922 11.5116 0.123804 16.8477 0.153194Z" fill="white"/>
</svg>
