<svg width="80" height="27" viewBox="0 0 80 27" fill="none" xmlns="http://www.w3.org/2000/svg">
<path d="M59.463 10.1098H58.3681V9.55323H61.1952V10.1098H60.0986V13.1296H59.463V10.1098ZM69.9434 12.6784C69.6602 12.6784 69.3375 12.5269 69.1597 12.2849L68.7052 12.7097C68.9868 13.0423 69.4676 13.2185 69.9319 13.2185C70.6333 13.2185 71.2344 12.8447 71.2344 12.0774C71.2344 11.376 70.6482 11.1735 70.1888 11.0318C69.7853 10.9051 69.5071 10.8095 69.5071 10.4819C69.5071 10.1345 69.8446 9.99285 70.1377 9.99285C70.3913 9.99285 70.658 10.1245 70.7948 10.3007L71.2097 9.84625C70.9363 9.58939 70.5279 9.46261 70.169 9.46261C69.5219 9.46261 68.8617 9.78539 68.8617 10.5131C68.8617 11.18 69.3309 11.3908 69.7639 11.5274C70.2135 11.6691 70.5873 11.776 70.5873 12.1498C70.5889 12.5319 70.2398 12.6784 69.9434 12.6784ZM66.647 13.1279H67.2826V11.5768L68.6245 9.55154H67.8868L66.978 11.0565L66.0789 9.55154H65.3018L66.6438 11.5768V13.1279H66.647ZM61.4158 11.3298C61.4158 10.1839 62.2276 9.46261 63.3292 9.46261C64.4439 9.46261 65.2573 10.1839 65.2573 11.3298C65.2573 12.4462 64.4439 13.2185 63.3292 13.2185C62.2292 13.2201 61.4158 12.4462 61.4158 11.3298ZM62.1074 11.3298C62.1074 12.0922 62.6063 12.6488 63.3341 12.6488C64.0668 12.6488 64.5658 12.0922 64.5658 11.3298C64.5658 10.5922 64.0768 10.0224 63.3341 10.0224C62.5981 10.0241 62.1074 10.5938 62.1074 11.3298ZM79.3404 22.0803C79.4013 22.2318 79.4935 22.0359 79.5775 22.082L79.594 22.1166L79.6137 21.9865C79.5232 22.0161 79.4113 22.1166 79.3404 22.0803ZM79.0655 21.7691C79.0869 21.8284 79.0226 21.8284 79.1214 21.7806C79.1165 21.774 79.1132 21.7708 79.1099 21.7658C79.1 21.7691 79.0885 21.7708 79.0655 21.7691ZM79.1099 21.7675C79.0737 21.7197 79.156 21.7576 79.1099 21.7675V21.7675ZM78.9568 21.7658C78.9403 21.7312 78.8843 21.7296 78.9008 21.7016C78.8432 21.7395 78.8596 21.774 78.9024 21.8284L78.9568 21.7658ZM78.8613 21.9502L78.8893 21.9238C78.881 21.9091 78.8727 21.9041 78.8613 21.9502ZM78.9173 21.9025C78.9173 21.9502 78.9255 21.9041 78.9485 21.8663L78.8893 21.9238C78.9008 21.9469 78.909 21.9979 78.9173 21.9025ZM78.9897 21.886C79.0276 21.9157 79.0736 21.9321 79.0209 21.9947C79.133 21.9568 79.1016 21.8497 78.9897 21.886ZM79.3388 22.2449L79.3898 22.2845L79.4227 22.2268C79.4046 22.2565 79.3289 22.1972 79.3388 22.2449ZM78.5979 21.8811C78.5715 21.8613 78.5254 21.8465 78.5155 21.7971C78.5172 21.8317 78.5485 21.8827 78.5583 21.9255L78.5979 21.8811ZM78.5583 21.9255L78.499 21.9914C78.5599 21.9898 78.5682 21.9618 78.5583 21.9255ZM78.8728 22.1264L78.9667 21.9931L78.853 22.1314L78.8728 22.1264ZM78.2619 21.8284L78.2883 21.7461L78.2372 21.8712L78.2619 21.8284ZM78.094 21.8646C78.1137 21.7971 78.0413 21.7609 78.0643 21.7181C78.0199 21.7362 77.9886 21.7971 77.9606 21.8498C77.9935 21.8185 78.0347 21.8202 78.094 21.8646ZM77.9112 21.9321C77.9277 21.914 77.9425 21.8844 77.9606 21.8514C77.9425 21.8696 77.926 21.8926 77.9112 21.9321ZM78.3196 21.9025L78.359 21.9931L78.3854 21.9914C78.3887 21.9996 78.392 22.0029 78.392 21.9914H78.3854C78.3772 21.9716 78.359 21.9206 78.3196 21.9025ZM78.3015 21.9963C78.3096 21.9963 78.3261 21.9963 78.3607 21.9963L78.359 21.9931C78.3294 21.9947 78.3096 21.9963 78.3015 21.9963ZM78.6703 22.2582C78.69 22.1907 78.639 22.1511 78.6867 22.0639C78.6554 22.1214 78.5813 22.189 78.6703 22.2582ZM78.5139 22.1149C78.5089 22.0902 78.4908 22.0556 78.5072 22.0276L78.4397 22.1033L78.4118 22.1L78.4084 22.1396L78.4397 22.105L78.5139 22.1149ZM78.0446 22.0029C78.0199 22.0473 77.9869 22.0556 77.9507 22.0688C77.9935 22.082 78.0363 22.0853 78.0759 22.0803C78.0775 22.049 78.0874 21.9931 78.0446 22.0029ZM78.1994 22.0079L78.1928 22.0145C78.1977 22.021 78.201 22.0243 78.1994 22.0079ZM77.5868 22.1182H77.5803L77.5884 22.1347L77.5868 22.1182ZM78.1467 22.0523C78.1253 22.0655 78.1022 22.0737 78.0759 22.0787C78.0742 22.0935 78.0759 22.1017 78.0841 22.0951C78.1187 22.11 78.1334 22.0836 78.1467 22.0523ZM77.814 21.9898C77.8322 22.0079 77.8536 22.021 77.875 22.0342C77.8536 22.0062 77.8157 21.9651 77.814 21.9898ZM78.1796 21.9898L78.1828 21.9848C78.1714 21.9667 78.173 21.9749 78.1796 21.9898ZM78.1928 22.0145C78.1878 22.0079 78.1828 21.9996 78.1796 21.9898C78.1648 22.0062 78.1565 22.0309 78.1467 22.0523C78.1648 22.0425 78.1796 22.0293 78.1928 22.0145ZM77.5342 22.268C77.5654 22.3125 77.7054 22.3569 77.6577 22.4442C77.572 22.5018 77.577 22.4244 77.5259 22.385C77.5803 22.4887 77.4321 22.5578 77.4765 22.7142L77.5489 22.6467C77.5539 22.6714 77.5309 22.7142 77.5556 22.734C77.5473 22.6467 77.6164 22.5545 77.6988 22.6385C77.7565 22.5644 77.6724 22.2845 77.5884 22.133C77.5901 22.1725 77.595 22.2071 77.5342 22.268ZM77.633 22.0062C77.5901 22.0556 77.5852 22.0886 77.5868 22.1182L77.7301 22.11L77.7218 22.1247L77.7482 22.11C77.7136 22.1 77.6856 22.0688 77.633 22.0062ZM77.8799 22.1033C77.9046 22.0836 77.9277 22.0753 77.9507 22.0688C77.9244 22.0606 77.898 22.049 77.8733 22.0359L77.8766 22.0408V22.0425C77.8832 22.054 77.8865 22.0606 77.8799 22.054L77.8766 22.0556C77.8783 22.0688 77.8766 22.0803 77.875 22.0919C77.8322 22.0787 77.8651 22.0672 77.8766 22.0556V22.0408L77.875 22.0392L77.7465 22.11C77.7778 22.1182 77.8124 22.1116 77.875 22.0919C77.8667 22.189 77.8025 22.2401 77.8601 22.3356C77.9441 22.3174 77.9079 22.2482 77.9524 22.2005C77.8223 22.2433 77.9869 22.1429 77.8799 22.1033ZM78.6258 22.4722C78.6209 22.464 78.6193 22.4574 78.6193 22.4508C78.611 22.464 78.6093 22.4722 78.6258 22.4722ZM78.6093 22.3356L78.6011 22.3503C78.5419 22.3256 78.4562 22.217 78.4644 22.2021C78.4925 22.2845 78.5138 22.3437 78.5616 22.4228C78.5699 22.408 78.5732 22.3684 78.606 22.375C78.6373 22.3997 78.6126 22.4211 78.6176 22.4508C78.634 22.4228 78.6768 22.3734 78.6093 22.3356ZM78.1137 22.3437L78.1828 22.4178L78.173 22.3684C78.2405 22.3783 78.2175 22.3207 78.2208 22.2812L78.1137 22.3437ZM77.5589 21.9716L77.5143 22.1214L77.5589 22.0737V21.9716ZM77.3744 22.0753L77.4123 22.105L77.4057 22.0178L77.3744 22.0753ZM75.9073 22.3833C75.8595 22.3536 75.8234 22.3437 75.792 22.3454C75.853 22.3899 75.9089 22.4656 75.9073 22.3833ZM75.7937 22.3454C75.7493 22.3109 75.7015 22.2943 75.6719 22.3668C75.6801 22.375 75.6883 22.3783 75.6982 22.385C75.7262 22.3652 75.7542 22.3454 75.7937 22.3454ZM77.0172 22.5578C77.0155 22.5348 77.0187 22.5183 77.022 22.5101C77.0187 22.5216 77.0155 22.5365 77.0172 22.5578ZM76.8673 22.1939C76.8541 22.1841 76.8393 22.1774 76.8228 22.1725C76.8294 22.1774 76.8443 22.1857 76.8673 22.1939ZM76.8228 22.1708C76.8163 22.166 76.8113 22.161 76.8129 22.1577C76.8163 22.1461 76.8426 22.1461 76.8129 22.1577C76.803 22.161 76.7916 22.1643 76.7701 22.1692C76.7883 22.1643 76.8047 22.1676 76.8228 22.1708ZM77.0237 22.5084C77.027 22.5018 77.0319 22.5018 77.0352 22.4969C77.0319 22.4985 77.027 22.5018 77.0237 22.5084ZM77.3547 22.1939C77.2608 22.166 77.1966 22.3223 77.1357 22.3997L77.218 22.4821C77.2015 22.6484 77.0813 22.4804 77.0352 22.4969C77.0632 22.4738 77.1126 22.4985 77.1208 22.5331L77.0813 22.4014C76.9743 22.3636 76.9134 22.4804 76.8541 22.5578C76.9265 22.5924 76.7882 22.6517 76.8508 22.7389L76.9002 22.7142C76.9315 22.7571 76.887 22.8065 76.8657 22.8509C76.6878 22.7785 76.4013 22.9118 76.3256 22.8147C76.3651 22.8443 76.4211 22.8048 76.4441 22.7604L76.3585 22.7159C76.4211 22.7011 76.4886 22.813 76.5742 22.7538C76.5446 22.6714 76.5923 22.5446 76.5033 22.4377C76.3041 22.3323 76.3947 22.683 76.1774 22.683C76.1625 22.7125 76.1988 22.5364 76.0934 22.6023C75.9649 22.7126 75.8958 22.925 75.9288 23.1094C75.9782 23.0452 76.0786 22.9151 76.1197 23.0452C76.0703 23.1094 75.9732 23.1621 75.983 23.2494C75.8941 23.1061 76.0868 23.1835 75.9847 23.0682C75.9435 23.0798 75.9353 23.1341 75.9205 23.1637C75.9369 23.0946 75.8645 23.0633 75.8447 23.0288C75.7097 23.0518 75.6192 22.9991 75.4726 23.0122C75.4809 23.0255 75.4825 23.0288 75.4693 23.0122H75.4726C75.4611 22.9908 75.4364 22.9448 75.4331 22.9069C75.3705 22.9612 75.3129 23.2115 75.3574 23.3021C75.2767 23.3235 75.2569 23.2511 75.196 23.307C75.3343 23.4239 75.1696 23.2872 75.1862 23.4387C75.1186 23.47 75.1466 23.3712 75.1071 23.3432C75.0988 23.3613 75.0791 23.4157 75.0857 23.4552C75.0198 23.3515 75.1137 23.1456 75.0363 23.0255C74.9836 22.9481 74.8321 22.8608 74.8453 22.8526C74.7086 22.9414 75.0314 23.3679 74.9753 23.628C74.9573 23.7154 74.8898 23.5491 74.8568 23.5474C74.7383 23.4272 74.7416 23.6857 74.6559 23.6462L74.6971 23.5556C74.6773 23.5227 74.5752 23.5919 74.5687 23.6462C74.5555 23.5985 74.5736 23.3827 74.5275 23.3333C74.3859 23.3366 74.3151 23.6314 74.3546 23.7746C74.3546 23.7746 74.4534 23.5276 74.4797 23.5869C74.5407 23.722 74.5242 23.7483 74.4485 23.8767C74.4238 23.9196 74.2591 23.9228 74.2493 23.8734C74.2443 23.8487 74.3381 23.8142 74.2937 23.7532C74.213 23.7779 74.2476 23.7417 74.18 23.6956C74.2393 23.5227 74.3267 23.0896 74.3497 22.8887C74.3497 22.8887 74.3003 22.9942 74.2673 22.9908C74.2476 22.9892 74.2279 22.925 74.2279 22.925C74.1175 23.0485 74.2015 23.6166 74.1011 23.6808C73.994 23.7483 73.9874 23.4009 73.994 23.3465C73.9857 23.3482 73.9792 23.3531 73.9726 23.3564C73.9776 23.3926 73.9792 23.4288 73.9759 23.4651C73.9577 23.6314 73.8705 23.7615 73.7306 23.8339C73.719 23.8405 73.7059 23.8455 73.6927 23.8487C72.9303 24.0908 72.1746 24.2917 71.4451 24.4464C70.8046 24.5848 70.1295 24.705 69.4396 24.8071C68.9868 24.8729 68.5669 24.9059 68.1865 24.9059C67.9725 24.9059 67.7716 24.8959 67.5823 24.8746C67.574 24.8729 67.5674 24.8729 67.5592 24.8712C66.5499 24.6621 66.4609 24.0694 66.4972 23.7351C66.5317 23.4223 66.6766 23.0814 66.9286 22.7208C67.1641 22.3816 67.4358 22.0573 67.7337 21.7576C68.0005 21.4892 68.2623 21.2505 68.5109 21.0463C68.4352 21.0479 68.3561 21.0479 68.2722 21.0479C67.7239 21.0529 67.1525 21.0446 66.5713 21.0232C66.5647 21.0232 66.5597 21.0232 66.5531 21.0216L65.8517 20.9442C65.832 20.9425 65.8138 20.9392 65.7957 20.9359C64.0701 22.1676 61.2923 23.3021 59.9569 23.7368C59.9553 23.7368 59.9504 23.7384 59.9438 23.7384C59.85 23.773 59.7528 23.8026 59.6474 23.8306C59.2819 23.9261 58.9526 23.9755 58.6711 23.9755C58.6694 23.9755 58.6694 23.9755 58.6678 23.9755C58.6398 23.9755 58.6134 23.9722 58.5854 23.9706C58.5443 23.9722 58.503 23.9755 58.4636 23.9755C58.4619 23.9755 58.4619 23.9755 58.4602 23.9755C58.1458 23.9755 57.8889 23.903 57.6946 23.7615C57.5184 23.633 57.3752 23.4832 57.2681 23.3152C57.1611 23.149 57.0904 22.9794 57.0524 22.8081C57.0178 22.6484 57.0014 22.5216 57.0014 22.4228C57.0014 22.2121 56.9767 21.9107 57.0722 21.5008C56.8878 21.5172 56.6984 21.532 56.4992 21.5402C55.6973 21.5716 54.6583 21.2554 54.0969 21.038L53.1007 21.8136C53.094 21.8202 53.0892 21.8284 53.0809 21.835L52.9755 21.9157C52.9031 21.9716 52.829 22.0293 52.7516 22.0869C52.2856 22.4261 51.8097 22.7357 51.3356 23.0073C50.8334 23.2938 50.3493 23.4651 49.8965 23.5178C49.8585 23.5227 49.8207 23.5244 49.7828 23.5244C49.5161 23.5244 49.2707 23.4124 49.0534 23.1884C48.8212 22.9514 48.6846 22.6813 48.6516 22.3899C48.6171 22.0919 48.6862 21.7493 48.8575 21.369C49.0172 21.0166 49.218 20.6659 49.4568 20.3267C49.5013 20.2642 49.5638 20.1785 49.6362 20.0797C47.9831 21.3393 46.1999 22.4097 45.0621 22.8196C45.0605 22.8196 45.0325 22.8246 44.9864 22.8312C44.8382 22.8789 44.6917 22.9168 44.5352 22.958C44.4809 22.9728 44.4249 22.9859 44.3673 23.0008C43.9836 23.1012 43.6394 23.1523 43.3431 23.1523C43.0072 23.1523 42.7355 23.0749 42.5313 22.925C42.347 22.7883 42.1955 22.6303 42.0834 22.4557C41.9715 22.2812 41.8958 22.1017 41.8562 21.9206C41.82 21.7526 41.8036 21.6193 41.8036 21.5139C41.8036 21.2999 41.8331 21.0973 41.8908 20.908C41.7986 20.959 41.708 21.0068 41.6191 21.0529C41.2931 21.2208 41.0659 21.3262 40.9243 21.3723C40.7926 21.4299 40.6262 21.4942 40.4319 21.5633C40.2607 21.6226 40.0779 21.695 39.8902 21.779C39.8573 21.7938 39.8227 21.8004 39.7865 21.8004C39.7075 21.8004 39.5593 21.774 39.4539 21.5929C39.3979 21.5007 39.3699 21.4068 39.3699 21.3163C39.3699 21.0693 39.4984 20.9672 39.5758 20.9294C39.584 20.9244 39.5922 20.9211 39.6021 20.9178C39.7486 20.8635 39.9001 20.8042 40.0944 20.7285C40.2459 20.6675 40.3858 20.6067 40.5077 20.5457C40.9902 20.3152 41.4133 20.0847 41.7657 19.8574C42.1789 19.6104 42.4836 19.3915 42.6697 19.2038C42.8458 19.0276 42.9611 18.8711 43.0122 18.7361C43.0846 18.5451 43.1554 18.3969 43.2311 18.2833C43.3431 18.1171 43.5094 18.0248 43.7021 18.0248C43.9013 18.0248 44.0824 18.0758 44.2405 18.1779C44.3755 18.2652 44.5352 18.4381 44.5352 18.7641C44.5352 18.8778 44.4924 19.0012 44.4018 19.1527L44.1697 19.4985C44.0725 19.6434 43.9754 19.8146 43.8831 20.0106C43.7909 20.2049 43.7086 20.4156 43.6394 20.6347C43.5736 20.8421 43.539 21.0413 43.539 21.2291C43.539 21.3954 43.5967 21.5336 43.7185 21.6555C43.8387 21.7757 44.0462 21.8366 44.3376 21.8383C44.4463 21.8383 44.8152 21.7625 45.1576 21.6835C46.0105 21.4085 47.0956 20.8388 48.403 19.9743C48.7093 19.7719 49.0567 19.5479 49.3926 19.3321C50.0677 18.8975 50.7675 18.448 51.1676 18.1466C51.2532 18.0824 51.3224 18.0594 51.3767 18.0758C51.5413 18.0397 51.7669 18.043 51.9316 18.0972C52.363 18.2389 52.5556 18.746 52.5046 19.0473C52.4815 19.1823 52.3267 19.4178 51.5332 20.5375C51.2598 20.9228 51.0013 21.2866 50.8597 21.504L50.8169 21.5682C50.7708 21.6374 50.6391 21.835 50.6127 21.9338C50.5781 22.0506 50.7987 22.0259 50.8547 22.0194C51.2121 21.9782 51.6434 21.7708 52.1374 21.4068L53.8005 19.948C53.8087 19.9398 53.8186 19.9332 53.8285 19.9266C53.9536 19.8459 54.2418 19.7686 54.5348 19.9826L54.6633 20.0781C54.9893 20.3234 55.2247 20.4996 56.0134 20.5869C56.3428 20.6231 56.8318 20.5901 57.4114 20.493C57.5711 20.0731 57.7637 19.6252 57.9432 19.291C57.9449 19.2877 57.9449 19.2844 57.9465 19.2811C58.3269 18.4595 58.8982 17.8454 59.6458 17.4518C59.9554 17.2904 60.3373 17.2032 60.6667 17.2229C61.2182 17.2542 61.6563 17.516 61.867 17.9409C62.081 18.3722 62.0251 18.8909 61.7089 19.3602C61.0684 20.3103 60.1958 20.6708 59.356 21.0018C59.3148 21.0183 59.2556 21.038 59.1831 21.061C59.1666 21.066 59.1502 21.0726 59.1337 21.0776C59.0629 21.2356 58.9987 21.4019 58.9427 21.5764C58.8785 21.7773 58.8455 21.97 58.8455 22.1511C58.8455 22.3142 58.9032 22.4524 59.0234 22.571C59.1222 22.6714 59.2869 22.7274 59.5026 22.7422C59.631 22.7258 59.85 22.6813 60.0756 22.6319C61.2907 22.2943 63.3045 21.4332 64.4884 20.7169C64.5772 20.6642 64.6612 20.6083 64.7468 20.554C64.7304 20.5391 64.7123 20.5259 64.6958 20.5112C64.6876 20.5046 64.681 20.4963 64.6744 20.4881C64.5707 20.3597 64.5131 20.251 64.4917 20.1439C64.4867 20.1192 64.4851 20.0945 64.4884 20.0698C64.5164 19.8196 64.6728 19.5561 64.9691 19.2614C65.2359 18.9979 65.5471 18.7576 65.8962 18.5484C66.237 18.3442 66.5861 18.1697 66.9368 18.0297C67.3155 17.8782 67.6135 17.8174 67.8457 17.8437C68.1454 17.8749 68.2508 18.0677 68.287 18.1796C68.3298 18.313 68.343 18.4513 68.3281 18.5895C68.3084 18.774 67.7683 19.375 67.4637 19.6994C67.4966 19.7043 67.5329 19.7109 67.574 19.7159L68.0516 19.7686C68.259 19.7916 68.4994 19.8014 68.7612 19.7998C69.0279 19.7998 69.3112 19.7883 69.6043 19.7669C69.8825 19.7455 70.1509 19.7076 70.4061 19.6532C70.4325 19.6467 70.4571 19.6467 70.4835 19.65C70.6202 19.6648 70.7387 19.7455 70.8342 19.8854C70.9231 20.0172 70.9594 20.1538 70.9445 20.2954C70.905 20.6642 70.7058 20.9014 70.3831 20.9705C70.2349 21.0562 70.0422 21.1797 69.8117 21.3377C69.5647 21.5089 69.3243 21.7065 69.0987 21.9238C68.8666 22.1478 68.6575 22.3767 68.4796 22.6023C68.3216 22.8032 68.2326 22.9875 68.2145 23.1539C68.2014 23.2675 68.2359 23.3547 68.3265 23.4371C68.3874 23.4931 68.557 23.5919 69.0148 23.6429C69.545 23.7005 70.0801 23.6956 70.6037 23.6297C71.1372 23.5622 71.6263 23.4766 72.0576 23.3778C72.5796 23.2658 73.0735 23.1276 73.5297 22.9695C73.5626 22.958 73.5988 22.953 73.6334 22.958C73.6383 22.958 73.6449 22.9595 73.6515 22.9612C73.6614 22.9448 73.6729 22.9431 73.6877 22.9695C73.6927 22.9711 73.6976 22.9728 73.7026 22.9744C73.7108 22.9514 73.7207 22.93 73.7339 22.9118C73.696 22.8377 73.8738 22.8163 73.8738 22.8196C73.8689 22.8542 73.9068 22.813 73.9562 22.8032C74.1669 22.7636 74.2113 22.5199 74.4089 22.7077C74.3826 22.6895 74.3481 22.6863 74.3464 22.7258C74.4699 22.6895 74.6246 22.8113 74.6889 22.7159L74.6642 22.6187C74.7481 22.5562 74.8124 22.5084 74.8881 22.4985C74.8881 22.4985 74.8502 22.4063 74.87 22.3866C74.9539 22.3042 75.1861 22.1874 75.2948 22.403C75.3047 22.3092 75.4397 22.3405 75.5056 22.3603C75.527 22.3668 75.5368 22.4425 75.5368 22.4425C75.6225 22.4557 75.6669 22.4162 75.7097 22.3833C75.9041 22.5315 76.0226 22.3273 76.1675 22.3158L76.1724 22.3405L76.3074 22.2565C76.2827 22.3405 76.3272 22.1988 76.375 22.2137C76.4145 22.1643 76.4919 22.1758 76.556 22.2219L76.6483 22.2121C76.5544 22.2862 76.6746 22.3339 76.6961 22.431L76.7422 22.3437C76.7734 22.3866 76.7175 22.4261 76.7636 22.4409C76.7949 22.3816 76.9117 22.3668 76.9315 22.2598C76.9216 22.2351 76.9051 22.2154 76.8837 22.1988C76.8804 22.2055 76.8804 22.2038 76.8821 22.1972L76.8771 22.1923L76.8821 22.1939C76.8854 22.1841 76.8904 22.166 76.892 22.1527C76.8837 22.1511 76.8755 22.1494 76.864 22.1478C76.8887 22.1264 76.8937 22.1363 76.8937 22.1527C76.971 22.1627 76.9364 22.1264 76.9282 22.0836C77.0352 22.2235 77.0666 22.1133 77.1571 22.2829C77.0402 22.0935 77.3464 22.2499 77.2641 22.0655C77.3382 22.2137 77.2953 22.0672 77.3547 22.1939ZM59.6985 19.869C60.1628 19.6582 60.5135 19.3321 60.828 18.8778C60.8906 18.7888 60.9762 18.5501 60.7473 18.5401C60.7177 18.5385 60.6584 18.5632 60.5909 18.6505C60.2501 19.0901 59.9982 19.4359 59.6985 19.869ZM76.4836 22.2976C76.4441 22.2829 76.4244 22.2696 76.4819 22.3026C76.4819 22.3009 76.4836 22.2976 76.4836 22.2976ZM77.1324 22.1214C77.1274 22.0967 77.1093 22.0639 77.1291 22.0589L77.0649 22.0967C77.0978 22.0869 77.1143 22.1083 77.1324 22.1214ZM77.814 22.627C77.8223 22.6122 77.8354 22.622 77.842 22.6072L77.8322 22.5578C77.791 22.5693 77.7663 22.6122 77.814 22.627ZM77.2459 22.3997C77.2657 22.4887 77.302 22.4508 77.348 22.4261C77.3447 22.4277 77.3431 22.4277 77.3399 22.4277C77.3333 22.3026 77.2888 22.352 77.2459 22.3997ZM77.358 22.4228C77.3711 22.4162 77.386 22.4113 77.4008 22.4146C77.3991 22.3619 77.381 22.4063 77.358 22.4228ZM76.7208 22.2466C76.7471 22.2664 76.7175 22.1314 76.7356 22.1643C76.7438 22.0473 76.6071 22.3256 76.7208 22.2466ZM77.2806 22.6731L77.3267 22.6879L77.2937 22.5809L77.2806 22.6731ZM77.0385 22.6434C76.9908 22.6467 76.9364 22.6336 76.9446 22.6648L77.0253 22.683C77.0188 22.6665 77.027 22.6533 77.0385 22.6434C77.0632 22.6418 77.0863 22.6352 77.0961 22.6154C77.083 22.6187 77.055 22.627 77.0385 22.6434ZM77.1505 22.7175L77.2312 22.7372L77.2048 22.7175H77.1505ZM76.1065 22.8575C76.1214 22.8279 76.1494 22.8081 76.1312 22.7735L76.0555 22.8196C76.0523 22.8591 76.0786 22.8773 76.1065 22.8575ZM76.398 23.0913L76.4276 23.0321C76.4013 23.0122 76.3964 22.9892 76.3782 22.9547L76.398 23.0913ZM76.1955 23.1029C76.1938 23.1423 76.0967 23.2329 76.1971 23.2049C76.1988 23.167 76.2762 23.121 76.1955 23.1029ZM74.0006 23.7301C73.9265 23.6973 73.9183 23.7746 73.9776 23.913C74.0845 23.9459 73.9693 23.7714 74.0698 23.8191C74.0812 23.7615 74.0484 23.7515 74.0006 23.7301ZM42.2613 15.5072C41.0017 16.6285 39.7767 17.6626 38.6207 18.5797C37.5159 19.4556 36.5806 20.1736 35.8413 20.712C35.535 22.049 35.4017 23.2741 35.4445 24.3526L35.4609 24.7691C35.4692 24.9536 35.4412 25.1248 35.3787 25.2796C35.2979 25.4756 35.1119 25.6122 34.8237 25.6863C34.7381 25.716 34.6311 25.734 34.5059 25.739C34.4878 25.7407 34.4681 25.7407 34.4499 25.7407C34.0811 25.7407 33.8852 25.5825 33.7847 25.4492C33.6514 25.273 33.5806 25.0705 33.5707 24.8465C33.5576 23.3893 33.8259 21.7526 34.371 19.9826C34.776 18.6686 35.2864 17.3234 35.8957 15.9715C35.8627 16.0028 35.8298 16.0358 35.7969 16.0671C34.5718 17.2344 33.3814 18.308 32.26 19.2597C31.1849 20.1736 30.2743 20.9211 29.5547 21.4842C29.2929 22.8328 29.2007 24.0611 29.2798 25.1347L29.311 25.5497C29.3242 25.734 29.3011 25.9069 29.2451 26.0634C29.171 26.2626 28.9883 26.4059 28.7034 26.4866C28.6195 26.5194 28.5141 26.5408 28.3873 26.5507C28.3527 26.5524 28.3215 26.5541 28.2918 26.5541C27.9477 26.5541 27.7566 26.4059 27.6578 26.2824C27.5195 26.1111 27.4405 25.9102 27.4241 25.688C27.3813 24.7099 27.4668 23.6429 27.6727 22.5084L27.5805 22.5578C27.3813 22.6665 27.1227 22.8113 26.8149 22.9892C26.5003 23.172 26.1512 23.3547 25.7792 23.5342C25.4119 23.7104 25.0464 23.8718 24.6891 24.0151C24.3219 24.1633 23.9843 24.2554 23.6863 24.2917C23.3571 24.3312 23.0788 24.2867 22.8565 24.1616C22.6556 24.0479 22.4876 23.908 22.3559 23.7467C22.2226 23.5853 22.1254 23.4157 22.0678 23.2428C22.0118 23.0798 21.9788 22.9497 21.9673 22.8476C21.9426 22.6303 21.9476 22.4162 21.9821 22.2104C21.9393 22.2499 21.8932 22.2895 21.8471 22.3322C21.4816 22.6583 21.0634 22.9941 20.6039 23.33C20.1396 23.6693 19.6621 23.9804 19.1863 24.2521C18.6824 24.5387 18.1967 24.7115 17.7406 24.7642C17.7027 24.7691 17.6632 24.7708 17.6253 24.7708C17.3536 24.7708 17.105 24.6556 16.8844 24.43C16.6489 24.1896 16.5122 23.9179 16.4776 23.6215C16.4431 23.3218 16.5122 22.9761 16.6835 22.5924C16.8431 22.2384 17.0457 21.886 17.2845 21.5469C17.515 21.2175 17.7472 20.9047 17.9761 20.6165C18.1818 20.3564 18.3432 20.1719 18.4684 20.0534C18.4766 20.0386 18.4848 20.027 18.4947 20.0155C18.5425 19.9546 18.6133 19.9167 18.6923 19.9085L18.8158 19.8937C18.9903 19.8722 19.1484 19.9134 19.2719 20.0139C19.3262 20.0567 19.3937 20.139 19.4102 20.2773C19.4283 20.4338 19.3575 20.6116 19.183 20.852C19.0529 21.0282 18.9097 21.229 18.7565 21.4464C18.6083 21.6571 18.4749 21.8844 18.3613 22.1198C18.2609 22.3273 18.2246 22.5298 18.2493 22.7372C18.2675 22.8921 18.3267 23.0155 18.4305 23.1193C18.549 23.2362 18.6363 23.2395 18.6923 23.2329C19.0479 23.1917 19.481 22.9842 19.9766 22.6171C20.5018 22.2285 21.0156 21.7889 21.5047 21.3113C22.0792 20.7532 22.6753 20.1341 23.2763 19.4689C23.3175 19.4228 23.3751 19.3931 23.436 19.3865C23.6254 19.3635 23.7934 19.3815 23.9382 19.4409C24.0717 19.4969 24.2396 19.6335 24.2791 19.9661C24.2923 20.0781 24.2643 20.2098 24.1918 20.3678C24.1885 20.3744 24.1852 20.3827 24.1803 20.3893C24.1605 20.4238 24.0964 20.5606 23.9482 21.0446C23.8428 21.3887 23.8081 21.7263 23.8461 22.049C23.8527 22.1067 23.8675 22.189 23.8905 22.2943C23.9086 22.3833 23.9465 22.4788 24.0009 22.5759C24.0519 22.6648 24.1194 22.7406 24.2066 22.8048C24.2676 22.8493 24.3762 22.8657 24.5195 22.8476C24.7319 22.8229 24.9673 22.7587 25.2209 22.6583C25.4943 22.5496 25.7693 22.431 26.0343 22.3042C26.2978 22.1808 26.5513 22.054 26.7852 21.9288C27.0091 21.8103 27.1968 21.7131 27.3286 21.6505L27.9263 21.3262C27.9691 21.1517 28.0119 20.9771 28.0596 20.7993C28.5421 19.0226 29.2138 17.1867 30.0552 15.3442C30.8966 13.5001 31.8995 11.6756 33.0356 9.92035C34.1701 8.16516 35.3704 6.56962 36.6004 5.17994C37.8353 3.78529 39.0966 2.63097 40.3496 1.75173C41.6257 0.856016 42.8442 0.35875 43.9721 0.276423C44.5896 0.23032 45.0654 0.337346 45.3897 0.592563C45.7257 0.85766 45.9183 1.39936 45.9809 2.25061C45.9825 2.26874 45.9809 2.28855 45.9825 2.30668C46.4206 1.96088 46.8585 1.64147 47.2932 1.35653C48.5989 0.503644 49.8338 0.0491939 50.9635 0.00309053C51.5842 -0.0216093 52.0551 0.101881 52.3713 0.36863C52.6956 0.643607 52.8701 1.18532 52.9047 2.0284V2.04315C52.936 2.83684 52.6264 3.79187 51.981 4.88026C51.3553 5.93897 50.5238 7.08334 49.5079 8.28368C48.5001 9.47585 47.3442 10.7091 46.0764 11.9489C44.8069 13.1872 43.5242 14.3843 42.2613 15.5072ZM37.3249 13.1098C38.0428 11.8057 38.8381 10.5214 39.7059 9.27496C40.8996 7.55921 42.1526 6.00481 43.4287 4.65627C43.5555 4.52291 43.6823 4.39284 43.809 4.26445C44.0989 3.57285 44.2289 2.98335 44.1944 2.50916C44.1779 2.28526 44.1006 2.09255 43.9589 1.92134C43.8568 1.79784 43.6774 1.73529 43.4287 1.73529C43.3892 1.73529 43.3464 1.73689 43.3036 1.74018C42.4984 1.79953 41.6405 2.1272 40.753 2.71334C39.8458 3.31271 38.9253 4.10968 38.0197 5.07945C37.1076 6.0559 36.2052 7.19369 35.3374 8.46155C34.4648 9.73759 33.6514 11.0911 32.9186 12.4858C32.1826 13.887 31.5323 15.3261 30.9823 16.7618C30.5311 17.9392 30.1573 19.0934 29.8692 20.1917C30.4686 19.7142 31.1634 19.1247 31.9356 18.4348C32.9697 17.5111 34.063 16.4721 35.1844 15.3459C35.899 14.6263 36.6152 13.8771 37.3249 13.1098ZM41.6768 14.7695C42.8277 13.6877 43.9935 12.5286 45.1379 11.3233C46.2724 10.1278 47.3031 8.93902 48.2037 7.78808C49.0978 6.64532 49.824 5.57016 50.3624 4.59212C50.8861 3.64367 51.138 2.85327 51.1133 2.24244C51.105 2.01845 51.0342 1.82254 50.8975 1.64636C50.7922 1.51131 50.5995 1.44218 50.3229 1.44218C50.2999 1.44218 50.2752 1.44218 50.2505 1.44387C49.4453 1.47515 48.5775 1.77314 47.6686 2.33138C47.0347 2.7216 46.3909 3.20405 45.7488 3.76877C45.6104 4.19035 45.4128 4.63983 45.1527 5.1173C44.5649 6.19423 43.7712 7.36659 42.7948 8.60149C41.8233 9.82982 40.7119 11.101 39.4884 12.3787C39.281 12.5944 39.0735 12.8085 38.8645 13.0225C38.3408 14.0187 37.86 15.0297 37.4336 16.0424C36.9428 17.2032 36.5296 18.3442 36.2052 19.4326C36.8226 18.9749 37.5372 18.4085 38.3293 17.7466C39.3946 16.8558 40.5209 15.853 41.6768 14.7695ZM45.6533 14.045C45.459 14.1653 45.2877 14.3183 45.1428 14.4978C45.0028 14.6724 44.8843 14.8617 44.7921 15.0576C44.6917 15.2701 44.6406 15.4727 44.639 15.657C44.639 15.899 44.7147 16.0885 44.8629 16.2218C45.0045 16.3469 45.2037 16.4112 45.4557 16.4112H45.4573C45.6747 16.4112 45.887 16.3436 46.0846 16.212C46.2641 16.0934 46.4287 15.9419 46.5736 15.7608C46.712 15.5862 46.8305 15.3986 46.9244 15.201C47.0248 14.9869 47.0759 14.786 47.0759 14.6016C47.0759 14.1224 46.7778 13.8474 46.2591 13.8474C46.0764 13.8507 45.8623 13.915 45.6533 14.045ZM19.015 17.5243L19.0183 17.521C19.1912 17.274 19.3707 17.0187 19.5288 16.757C19.6737 16.5165 19.9552 16.0061 20.0688 15.7986C20.2088 15.5221 20.4969 14.8354 20.1561 14.437C19.9223 14.1636 19.5024 14.129 18.8701 14.3299C18.7202 14.3777 18.5112 14.4501 18.2543 14.539C17.2202 14.898 15.4897 15.499 13.6209 15.8727C13.4594 15.9057 13.2965 15.9386 13.14 15.9715L13.1137 15.9764C12.5918 16.0852 12.0994 16.1889 11.6022 16.2432C10.2438 16.3914 9.18169 16.3996 8.54776 16.4029C8.37158 16.4046 8.22009 16.4046 8.11142 16.4095C7.64214 16.426 7.26179 16.421 6.98352 16.3947C6.92424 16.3882 6.86826 16.3832 6.82545 16.3815C6.76453 16.3799 6.70525 16.3832 6.65256 16.3963C6.48461 16.4309 6.39569 16.5215 6.35123 16.5906C6.28208 16.6977 6.26397 16.8278 6.29525 16.9776C6.37099 17.3382 6.56694 17.6412 6.87978 17.8815C7.18769 18.1171 7.6685 18.2323 8.35182 18.2323C8.36334 18.2323 8.37487 18.2323 8.3864 18.2323C8.6235 18.2191 9.18333 18.1697 10.0972 18.0808C11.0012 17.9919 12.0879 17.8141 13.3278 17.5522C14.4442 17.3168 15.4255 17.0895 16.2472 16.8805C16.4908 16.8179 16.7329 16.757 16.9683 16.6977L17.0062 16.6877C17.5216 16.5594 18.055 16.426 18.5655 16.2778C18.5787 16.2745 18.5919 16.2695 18.605 16.2663C18.1341 17.0352 17.566 17.8321 16.8201 18.7757C15.8882 19.9546 13.6209 22.2895 11.0308 23.5738C10.224 23.9722 9.34142 24.2571 8.33042 24.4431C7.65038 24.5682 7.00163 24.5996 6.39899 24.5354C5.80458 24.4728 5.25133 24.3032 4.75736 24.0298C4.26667 23.7582 3.8468 23.3811 3.5109 22.9102C3.17335 22.4393 2.93954 21.8514 2.81275 21.1631C2.60364 20.0303 2.65468 18.8514 2.96259 17.6576C3.27379 16.449 3.76612 15.2635 4.42475 14.134C5.08667 12.9978 5.89514 11.8995 6.82545 10.8705C7.38363 10.2546 7.9764 9.65861 8.58893 9.09877C9.06643 8.697 9.49779 8.35618 9.90783 8.05649C11.0983 7.18383 12.3711 6.41316 13.6933 5.76279C15.0139 5.11402 16.336 4.61513 17.627 4.2776C18.1736 4.13438 18.7515 4.01248 19.3443 3.91208C19.9272 3.81488 20.5398 3.74575 21.1637 3.7079C21.2791 3.71119 21.3993 3.71777 21.5178 3.73092C21.5079 3.74735 21.4931 3.76877 21.4684 3.79675C21.3383 3.91208 21.2214 4.04046 21.1226 4.18209C20.9909 4.36982 20.9448 4.5493 20.9876 4.71225C21.0337 4.88354 21.1984 5.05644 21.5128 4.97408C21.5326 4.96911 21.5524 4.96093 21.5705 4.95107C21.9146 4.76164 22.2193 4.54272 22.4744 4.29572C22.7 4.07503 22.8861 3.8314 23.031 3.57117C23.1973 3.27317 23.2352 2.94878 23.1446 2.60467C23.0491 2.24075 22.8005 1.98718 22.4234 1.87194C22.0974 1.77154 21.7236 1.73529 21.3119 1.76328C20.9135 1.78958 20.4937 1.85053 20.0606 1.94604C19.6324 2.03827 19.2389 2.13209 18.8883 2.22432C17.4952 2.58824 16.0314 3.15624 14.5364 3.91368C13.0429 4.66951 11.5725 5.56688 10.1631 6.58117C9.7168 6.90218 9.26402 7.24966 8.73547 7.67942C8.6976 7.68759 8.65972 7.70741 8.63009 7.73211C8.36006 7.96098 8.08343 8.20301 7.7854 8.47302L7.6899 8.5504C7.67508 8.56364 7.6619 8.57839 7.65202 8.59323C6.99669 9.1926 6.3677 9.81338 5.78317 10.4358C4.61905 11.674 3.60311 12.9748 2.76336 14.3003C1.91867 15.6307 1.27815 16.9858 0.861569 18.3278C0.440047 19.6862 0.337959 20.9886 0.560247 22.1972C0.848397 23.7598 1.56466 24.9601 2.69091 25.7687C3.50925 26.3565 4.48568 26.6545 5.59217 26.6545C6.00545 26.6545 6.44345 26.6117 6.89296 26.5294C7.72942 26.3762 8.61033 26.0947 9.51103 25.6946C10.4001 25.2994 11.314 24.8399 12.2295 24.3262C13.8678 23.2543 15.3004 22.1363 16.0627 21.3344C17.0934 20.251 17.9628 19.0358 18.913 17.6725L19.015 17.5243Z" fill="#D4D4D8"/>
</svg>
